<svg width="136" height="134" viewBox="0 0 136 134" fill="none" xmlns="http://www.w3.org/2000/svg">
<rect x="0.75" width="134" height="134" rx="67" fill="#FBFBFB"/>
<mask id="mask0_8_1149" style="mask-type:alpha" maskUnits="userSpaceOnUse" x="0" y="0" width="135" height="134">
<rect x="0.75" width="134" height="134" rx="67" fill="#F2F2F2"/>
</mask>
<g mask="url(#mask0_8_1149)">
<path d="M111.696 134H108.748H67.75C52.8023 134 26.752 134 26.752 134H23.8037C24.9922 129.818 27.2837 125.71 30.0288 122.612C32.7739 119.514 36.1319 117.207 39.8223 115.883L58.3997 109.228V105.747C56.0739 104.177 53.9917 102.381 52.2747 101.065C50.6977 99.8531 49.3545 98.2892 48.3273 96.4685C47.3001 94.6478 46.6104 92.6085 46.3003 90.4751L45.3097 83.7478C44.019 83.7503 42.767 83.2471 41.765 82.3233C40.7629 81.3994 40.072 80.1113 39.8089 78.6763C39.5458 77.2413 39.7265 75.7472 40.3206 74.4459C40.9147 73.1446 41.8858 72.1158 43.0702 71.533C41.3226 66.8699 40.0564 61.9927 39.2969 56.9987C38.8113 53.8184 38.5376 50.4641 39.3599 47.3972C40.1821 44.3303 42.356 41.6394 44.9226 41.5866L45.2591 41.613C46.8776 38.7403 49.4099 36.8479 52.0668 35.7542C54.7237 34.6604 57.5269 34.2875 60.3069 33.9255C61.3931 33.7826 62.4849 33.6397 63.5794 33.5154C68.6263 32.9638 74.1219 32.8287 79.2824 34.4615C84.4429 36.0944 89.431 39.7548 92.0591 45.5903C94.1468 50.2202 94.5696 55.8055 94.0442 61.0895C93.6967 64.596 92.9566 68.0094 92.0892 71.3792C93.3348 71.8846 94.3831 72.8736 95.0489 74.1716C95.7147 75.4695 95.9552 76.9929 95.7279 78.4727C95.5005 79.9525 94.82 81.2934 93.8065 82.2587C92.7929 83.2239 91.5117 83.7513 90.1889 83.7478L89.197 90.4782C88.8871 92.6113 88.1978 94.6504 87.1711 96.4711C86.1444 98.2918 84.8018 99.8558 83.2253 101.068C81.5069 102.384 79.4274 104.175 77.0989 105.751V109.228L95.675 115.888C99.3656 117.21 102.724 119.516 105.47 122.614C108.215 125.711 110.507 129.818 111.696 134Z" fill="#ECECEC"/>
</g>
<path d="M107.25 120C107.25 112.268 113.518 106 121.25 106C128.982 106 135.25 112.268 135.25 120C135.25 127.732 128.982 134 121.25 134C113.518 134 107.25 127.732 107.25 120Z" fill="#4EEED0"/>
<path d="M124.167 120.75C124.167 121.742 123.408 122.5 122.417 122.5C121.425 122.5 120.667 121.742 120.667 120.75C120.667 119.758 121.425 119 122.417 119C123.408 119 124.167 119.758 124.167 120.75ZM127.083 117.833V124.25C127.083 124.892 126.558 125.417 125.917 125.417H116.583C115.942 125.417 115.417 124.892 115.417 124.25V117.833C115.417 117.192 115.942 116.667 116.583 116.667V116.083H118.917V116.667H120.083L120.667 115.5H124.167L124.75 116.667H125.917C126.558 116.667 127.083 117.192 127.083 117.833ZM118.625 119C118.625 118.533 118.217 118.125 117.75 118.125C117.283 118.125 116.875 118.533 116.875 119C116.875 119.467 117.283 119.875 117.75 119.875C118.217 119.875 118.625 119.467 118.625 119ZM125.333 120.75C125.333 119.117 124.05 117.833 122.417 117.833C120.783 117.833 119.5 119.117 119.5 120.75C119.5 122.383 120.783 123.667 122.417 123.667C124.05 123.667 125.333 122.383 125.333 120.75Z" fill="black"/>
</svg>
