<svg width="74" height="57" viewBox="0 0 74 57" fill="none" xmlns="http://www.w3.org/2000/svg">
<g clip-path="url(#clip0_1_22)">
<path fill-rule="evenodd" clip-rule="evenodd" d="M74 28.5C74 31.4387 71.6177 33.821 68.679 33.821H49.2728C47.1086 33.821 45.1601 32.5102 44.3443 30.5057V30.5057C42.9201 27.0064 45.4947 23.1789 49.2728 23.1789H68.679C71.6177 23.1789 74 25.5612 74 28.5V28.5Z" fill="#4EEED0"/>
<path fill-rule="evenodd" clip-rule="evenodd" d="M7.00579 57C3.57336 57 1.16158 53.6207 2.27734 50.3746L18.682 2.64963C20.2312 -1.85734 26.6088 -1.84743 28.144 2.66434L44.3827 50.3893C45.4863 53.6326 43.0751 57 39.6492 57H7.00579Z" fill="#4EEED0"/>
<path fill-rule="evenodd" clip-rule="evenodd" d="M74 5.3212C74 8.26004 71.6176 10.6424 68.6788 10.6424H42.0824C39.9181 10.6424 37.9695 9.33162 37.1537 7.327V7.327C35.7295 3.82748 38.3042 -4.31538e-05 42.0824 -4.31538e-05H68.6788C71.6176 -4.31538e-05 74 2.38236 74 5.3212V5.3212Z" fill="#4EEED0"/>
<path fill-rule="evenodd" clip-rule="evenodd" d="M74 51.6789C74 54.6177 71.6177 57 68.679 57H58.7062C56.5421 57 54.5935 55.6892 53.7778 53.6847V53.6847C52.3536 50.1854 54.9282 46.3579 58.7062 46.3579H68.679C71.6177 46.3579 74 48.7402 74 51.6789V51.6789Z" fill="#4EEED0"/>
</g>
<defs>
<clipPath id="clip0_1_22">
<rect width="74" height="57" fill="white"/>
</clipPath>
</defs>
</svg>
