<svg width="47" height="37" viewBox="0 0 47 37" fill="none" xmlns="http://www.w3.org/2000/svg">
<g clip-path="url(#clip0_139_141)">
<path fill-rule="evenodd" clip-rule="evenodd" d="M47 18.5C47 20.4076 45.4536 21.954 43.546 21.954H31.3639C29.9496 21.954 28.6782 21.0918 28.155 19.7778C27.2518 17.5098 28.9226 15.046 31.3639 15.046H43.546C45.4536 15.046 47 16.5924 47 18.5Z" fill="#4EEED0"/>
<path fill-rule="evenodd" clip-rule="evenodd" d="M6.95685 37C3.5384 37 1.12797 33.6462 2.2177 30.4061L10.1208 6.90769C11.6507 2.35889 18.088 2.36873 19.604 6.92218L27.4272 30.4206C28.505 33.6579 26.0952 37 22.6832 37H6.95685Z" fill="#4EEED0"/>
<path fill-rule="evenodd" clip-rule="evenodd" d="M47 3.45416C47 5.36183 45.4535 6.9083 43.5459 6.9083H26.7971C25.3827 6.9083 24.1112 6.04602 23.588 4.73199C22.6848 2.46381 24.3557 1.85966e-05 26.7971 1.85966e-05H43.5459C45.4535 1.85966e-05 47 1.54649 47 3.45416Z" fill="#4EEED0"/>
<path fill-rule="evenodd" clip-rule="evenodd" d="M47 33.546C47 35.4536 45.4536 37 43.546 37H37.3554C35.9411 37 34.6697 36.1378 34.1465 34.8238C33.2433 32.5558 34.9141 30.092 37.3554 30.092H43.546C45.4536 30.092 47 31.6384 47 33.546Z" fill="#4EEED0"/>
</g>
<defs>
<clipPath id="clip0_139_141">
<rect width="47" height="37" fill="white"/>
</clipPath>
</defs>
</svg>
