<svg width="185" height="55" viewBox="0 0 185 55" fill="none" xmlns="http://www.w3.org/2000/svg">
<path d="M4.30067 35.9739H2.28931V38.7207H4.30067V35.9739Z" fill="#0072BC"/>
<path d="M3.31014 37.582L0.722656 38.5809V46.3021C0.723318 46.6035 0.784142 46.9019 0.901643 47.1801C1.01914 47.4583 1.19102 47.7108 1.40742 47.9233C1.62382 48.1358 1.88051 48.304 2.16278 48.4183C2.44505 48.5326 2.74736 48.5907 3.0524 48.5894H18.2134L13.1598 38.456L3.31014 37.582Z" fill="#4EEED0"/>
<path d="M24.4294 9.48905L25.8243 8.1406C27.5808 6.44537 29.8048 5.30043 32.2172 4.84936L34.744 4.34994C34.9207 4.31797 35.1021 4.32283 35.2767 4.36423C35.4514 4.40563 35.6153 4.48264 35.7581 4.59033C35.9008 4.69801 36.0192 4.83399 36.1057 4.98955C36.1921 5.14511 36.2447 5.3168 36.2601 5.49363L37.6701 21.2056C37.7813 22.5008 37.8369 23.796 37.8369 25.0912V37.2673H29.1445L24.4294 9.48905Z" fill="#50CAB3"/>
<path d="M184.282 36.2036H43.1028V43.3404H184.282V36.2036Z" fill="#191919"/>
<path d="M147.134 52.3076C151.465 51.2895 154.141 46.9946 153.11 42.7145C152.08 38.4345 147.734 35.7902 143.403 36.8082C139.072 37.8263 136.397 42.1213 137.427 46.4013C138.457 50.6813 142.803 53.3256 147.134 52.3076Z" fill="#484848"/>
<path d="M149.69 44.5741C149.69 43.7098 149.431 42.8649 148.945 42.1463C148.459 41.4276 147.768 40.8675 146.96 40.5367C146.152 40.206 145.263 40.1195 144.405 40.2881C143.547 40.4567 142.76 40.8729 142.141 41.484C141.523 42.0952 141.102 42.8739 140.931 43.7216C140.76 44.5693 140.848 45.4479 141.183 46.2464C141.517 47.0449 142.084 47.7274 142.811 48.2076C143.538 48.6878 144.393 48.9441 145.268 48.9441C146.441 48.9441 147.565 48.4837 148.395 47.6642C149.224 46.8446 149.69 45.7331 149.69 44.5741Z" fill="#4EEED0"/>
<path d="M149.336 44.574C149.336 43.7838 149.099 43.0114 148.655 42.3543C148.211 41.6973 147.579 41.1852 146.84 40.8827C146.102 40.5803 145.289 40.5012 144.504 40.6554C143.72 40.8096 143 41.1901 142.434 41.7489C141.869 42.3076 141.484 43.0195 141.328 43.7946C141.172 44.5696 141.252 45.373 141.558 46.103C141.864 46.8331 142.382 47.4571 143.047 47.8961C143.712 48.3351 144.494 48.5695 145.293 48.5695C146.365 48.5695 147.394 48.1485 148.152 47.3992C148.91 46.65 149.336 45.6337 149.336 44.574Z" fill="#5D5D5D"/>
<path d="M147.845 44.574C147.846 44.0701 147.696 43.5771 147.414 43.1576C147.131 42.7381 146.729 42.4108 146.258 42.2173C145.787 42.0237 145.269 41.9726 144.768 42.0703C144.268 42.168 143.808 42.4102 143.447 42.7662C143.086 43.1222 142.84 43.5761 142.741 44.0703C142.641 44.5645 142.691 45.0769 142.886 45.5426C143.081 46.0083 143.412 46.4064 143.836 46.6865C144.26 46.9666 144.758 47.1161 145.268 47.1161C145.951 47.1161 146.606 46.8485 147.089 46.3719C147.572 45.8953 147.844 45.2487 147.845 44.574Z" fill="#484848"/>
<path d="M146.072 44.574C146.072 44.4179 146.025 44.2654 145.937 44.1356C145.849 44.0058 145.725 43.9047 145.579 43.845C145.433 43.7853 145.272 43.7696 145.117 43.8001C144.962 43.8305 144.82 43.9057 144.708 44.016C144.597 44.1264 144.521 44.267 144.49 44.4201C144.459 44.5731 144.475 44.7318 144.535 44.876C144.596 45.0202 144.698 45.1434 144.829 45.2301C144.961 45.3168 145.115 45.3631 145.273 45.3631C145.378 45.3638 145.482 45.3438 145.579 45.3044C145.677 45.265 145.765 45.2069 145.839 45.1335C145.913 45.0601 145.972 44.9728 146.012 44.8768C146.052 44.7807 146.072 44.6778 146.072 44.574Z" fill="#191919"/>
<path d="M145.268 50.642C146.075 50.6427 146.874 50.4862 147.619 50.1816C148.365 49.8769 149.042 49.43 149.613 48.8665C150.184 48.303 150.636 47.6338 150.945 46.8973C151.254 46.1607 151.413 45.3713 151.413 44.574H150.155C150.114 45.8273 149.582 47.0158 148.67 47.8881C147.758 48.7604 146.539 49.2482 145.27 49.2482C144.002 49.2482 142.782 48.7604 141.871 47.8881C140.959 47.0158 140.427 45.8273 140.386 44.574H139.128C139.128 46.1833 139.775 47.7268 140.926 48.8647C142.078 50.0027 143.639 50.642 145.268 50.642Z" fill="#191919"/>
<path d="M145.268 37.2124C144.29 37.2124 143.322 37.4028 142.418 37.7729C141.515 38.1429 140.694 38.6852 140.003 39.3689C139.311 40.0525 138.763 40.8641 138.389 41.7572C138.015 42.6503 137.823 43.6075 137.824 44.574H139.128C139.104 43.7621 139.246 42.9539 139.544 42.197C139.842 41.4401 140.291 40.75 140.863 40.1676C141.436 39.5851 142.121 39.1221 142.878 38.8059C143.635 38.4897 144.449 38.3268 145.271 38.3268C146.092 38.3268 146.906 38.4897 147.663 38.8059C148.42 39.1221 149.105 39.5851 149.678 40.1676C150.251 40.75 150.699 41.4401 150.997 42.197C151.295 42.9539 151.437 43.7621 151.413 44.574H152.717C152.717 42.6216 151.932 40.7491 150.535 39.3686C149.138 37.988 147.244 37.2124 145.268 37.2124Z" fill="#5D5D5D"/>
<path d="M145.677 42.7911C145.678 42.7109 145.655 42.6322 145.611 42.565C145.566 42.4979 145.503 42.4452 145.428 42.4138C145.353 42.3825 145.271 42.3737 145.191 42.3888C145.112 42.4038 145.038 42.4419 144.98 42.4983C144.923 42.5547 144.883 42.6267 144.867 42.7054C144.851 42.784 144.858 42.8656 144.889 42.9398C144.92 43.014 144.973 43.0775 145.04 43.1221C145.107 43.1668 145.187 43.1907 145.268 43.1907C145.376 43.1907 145.479 43.1487 145.556 43.0739C145.632 42.9992 145.676 42.8975 145.677 42.7911Z" fill="#191919"/>
<path d="M143.909 43.3304C143.838 43.2903 143.758 43.2717 143.677 43.277C143.596 43.2823 143.518 43.3113 143.454 43.3602C143.39 43.4092 143.342 43.4759 143.316 43.5519C143.29 43.6279 143.288 43.7098 143.309 43.7871C143.33 43.8644 143.374 43.9338 143.436 43.9863C143.497 44.0388 143.573 44.0722 143.653 44.0821C143.734 44.092 143.815 44.0781 143.888 44.042C143.96 44.006 144.02 43.9495 144.06 43.8797C144.113 43.7869 144.127 43.6771 144.099 43.5742C144.07 43.4713 144.002 43.3837 143.909 43.3304Z" fill="#191919"/>
<path d="M143.504 45.1134C143.434 45.1529 143.377 45.2122 143.34 45.2838C143.304 45.3554 143.289 45.4361 143.3 45.5157C143.31 45.5952 143.343 45.67 143.396 45.7306C143.45 45.7912 143.52 45.8348 143.598 45.8559C143.676 45.8769 143.759 45.8746 143.836 45.8491C143.913 45.8235 143.98 45.776 144.03 45.7125C144.079 45.649 144.109 45.5724 144.114 45.4924C144.12 45.4124 144.101 45.3327 144.06 45.2632C144.006 45.1709 143.918 45.1034 143.813 45.0753C143.709 45.0472 143.598 45.0609 143.504 45.1134Z" fill="#191919"/>
<path d="M144.864 46.357C144.864 46.4372 144.888 46.5156 144.933 46.5822C144.978 46.6488 145.042 46.7007 145.117 46.7312C145.193 46.7616 145.275 46.7693 145.355 46.7533C145.434 46.7373 145.507 46.6983 145.564 46.6412C145.621 46.5841 145.66 46.5116 145.675 46.4328C145.69 46.354 145.681 46.2725 145.65 46.1987C145.618 46.1248 145.565 46.062 145.497 46.0182C145.429 45.9743 145.349 45.9514 145.268 45.9524C145.214 45.9524 145.161 45.9629 145.112 45.9833C145.063 46.0037 145.018 46.0336 144.98 46.0712C144.943 46.1088 144.913 46.1535 144.893 46.2025C144.873 46.2516 144.863 46.3041 144.864 46.357Z" fill="#191919"/>
<path d="M146.627 45.8125C146.697 45.8533 146.778 45.8728 146.859 45.8682C146.94 45.8637 147.018 45.8355 147.083 45.7871C147.148 45.7388 147.196 45.6724 147.223 45.5966C147.249 45.5207 147.253 45.4388 147.232 45.3612C147.211 45.2836 147.168 45.2139 147.107 45.1608C147.046 45.1078 146.97 45.0738 146.89 45.0633C146.809 45.0528 146.727 45.0662 146.655 45.1017C146.582 45.1373 146.521 45.1935 146.481 45.2631C146.454 45.3086 146.436 45.359 146.429 45.4113C146.421 45.4637 146.425 45.5169 146.438 45.568C146.452 45.6191 146.476 45.667 146.508 45.709C146.541 45.7509 146.581 45.7861 146.627 45.8125Z" fill="#191919"/>
<path d="M147.037 44.0296C147.124 43.9729 147.186 43.8853 147.21 43.7847C147.235 43.6841 147.219 43.5783 147.166 43.4888C147.114 43.3994 147.029 43.3331 146.929 43.3036C146.829 43.2742 146.721 43.2838 146.627 43.3304C146.535 43.3846 146.467 43.4726 146.44 43.5754C146.413 43.6782 146.427 43.7875 146.481 43.8798C146.507 43.926 146.542 43.9666 146.585 43.9992C146.627 44.0318 146.675 44.0558 146.727 44.0697C146.779 44.0837 146.833 44.0873 146.886 44.0804C146.939 44.0735 146.99 44.0563 147.037 44.0296Z" fill="#191919"/>
<path d="M145.657 41.0229H144.884C144.792 41.0229 144.704 41.0586 144.639 41.1221C144.574 41.1857 144.536 41.272 144.535 41.3626C144.535 41.454 144.572 41.5416 144.637 41.6062C144.703 41.6709 144.791 41.7072 144.884 41.7072H145.657C145.703 41.7072 145.748 41.6982 145.79 41.6808C145.832 41.6635 145.87 41.638 145.902 41.6059C145.934 41.5739 145.959 41.5358 145.976 41.4941C145.993 41.4523 146.001 41.4076 146.001 41.3626C146.001 41.2725 145.965 41.1861 145.9 41.1224C145.836 41.0587 145.748 41.0229 145.657 41.0229Z" fill="#191919"/>
<path d="M142.352 42.4665L141.968 43.1307C141.945 43.1694 141.931 43.2121 141.925 43.2564C141.919 43.3007 141.922 43.3457 141.934 43.3888C141.945 43.432 141.966 43.4724 141.993 43.5078C142.021 43.5432 142.055 43.5729 142.094 43.5952C142.134 43.6175 142.177 43.632 142.222 43.6379C142.266 43.6437 142.312 43.6407 142.356 43.6291C142.399 43.6175 142.44 43.5975 142.476 43.5703C142.512 43.543 142.542 43.509 142.564 43.4703L142.953 42.8061C142.997 42.7274 143.007 42.6353 142.984 42.5489C142.96 42.4625 142.904 42.3883 142.827 42.3416C142.747 42.2962 142.653 42.2838 142.564 42.3072C142.475 42.3306 142.399 42.3879 142.352 42.4665Z" fill="#191919"/>
<path d="M141.968 46.0174L142.352 46.6767C142.398 46.7553 142.474 46.8125 142.563 46.8359C142.652 46.8593 142.747 46.8469 142.827 46.8015C142.905 46.7557 142.962 46.6814 142.986 46.5947C143.009 46.5079 142.998 46.4155 142.953 46.3371L142.564 45.6728C142.518 45.5956 142.443 45.5393 142.355 45.516C142.267 45.4926 142.174 45.5041 142.094 45.548C142.015 45.5939 141.957 45.669 141.933 45.757C141.909 45.8449 141.922 45.9385 141.968 46.0174Z" fill="#191919"/>
<path d="M144.884 48.1199H145.657C145.702 48.1206 145.747 48.1123 145.789 48.0955C145.831 48.0786 145.87 48.0536 145.902 48.022C145.934 47.9903 145.959 47.9526 145.976 47.9111C145.993 47.8696 146.001 47.8251 146.001 47.7803C146.001 47.7355 145.993 47.6911 145.976 47.6496C145.959 47.6081 145.934 47.5704 145.902 47.5387C145.87 47.507 145.831 47.482 145.789 47.4652C145.747 47.4484 145.702 47.44 145.657 47.4407H144.884C144.838 47.44 144.793 47.4483 144.751 47.4651C144.709 47.4819 144.67 47.5068 144.638 47.5384C144.605 47.57 144.579 47.6077 144.562 47.6492C144.544 47.6907 144.535 47.7353 144.535 47.7803C144.535 47.8253 144.544 47.8699 144.562 47.9114C144.579 47.953 144.605 47.9906 144.638 48.0222C144.67 48.0538 144.709 48.0788 144.751 48.0955C144.793 48.1123 144.838 48.1206 144.884 48.1199Z" fill="#191919"/>
<path d="M148.184 46.6765L148.573 46.0173C148.619 45.9384 148.632 45.8447 148.608 45.7568C148.584 45.6688 148.526 45.5937 148.447 45.5478C148.408 45.5254 148.364 45.5109 148.32 45.5051C148.275 45.4993 148.229 45.5022 148.186 45.5138C148.142 45.5254 148.101 45.5454 148.065 45.5727C148.029 45.5999 147.999 45.6339 147.977 45.6727L147.588 46.3369C147.565 46.3756 147.55 46.4183 147.544 46.4626C147.539 46.5069 147.542 46.5519 147.553 46.595C147.565 46.6382 147.585 46.6786 147.613 46.714C147.64 46.7494 147.675 46.7791 147.714 46.8014C147.753 46.8237 147.796 46.8382 147.841 46.8441C147.886 46.8499 147.932 46.8469 147.975 46.8353C148.019 46.8237 148.06 46.8037 148.096 46.7765C148.131 46.7492 148.161 46.7153 148.184 46.6765Z" fill="#191919"/>
<path d="M148.598 43.1306L148.209 42.4664C148.187 42.4276 148.157 42.3936 148.121 42.3664C148.085 42.3391 148.044 42.3191 148 42.3075C147.957 42.2959 147.911 42.293 147.866 42.2988C147.821 42.3046 147.778 42.3191 147.739 42.3415C147.7 42.3638 147.666 42.3934 147.638 42.4288C147.61 42.4642 147.59 42.5047 147.578 42.5478C147.567 42.591 147.564 42.636 147.57 42.6803C147.575 42.7246 147.59 42.7673 147.613 42.806L148.002 43.4702C148.024 43.509 148.054 43.5429 148.09 43.5702C148.126 43.5974 148.167 43.6174 148.211 43.629C148.254 43.6406 148.3 43.6436 148.345 43.6378C148.39 43.6319 148.433 43.6174 148.472 43.5951C148.511 43.5728 148.545 43.5431 148.573 43.5077C148.601 43.4723 148.621 43.4319 148.633 43.3887C148.644 43.3456 148.647 43.3006 148.641 43.2563C148.636 43.212 148.621 43.1693 148.598 43.1306Z" fill="#191919"/>
<path d="M162.043 52.5242C166.479 52.1607 169.778 48.3117 169.41 43.9273C169.042 39.5429 165.147 36.2834 160.711 36.6469C156.274 37.0105 152.976 40.8594 153.344 45.2438C153.712 49.6282 157.606 52.8877 162.043 52.5242Z" fill="#484848"/>
<path d="M165.811 44.5741C165.812 43.7086 165.553 42.8622 165.067 42.1421C164.582 41.422 163.891 40.8605 163.082 40.5286C162.273 40.1967 161.383 40.1093 160.523 40.2776C159.664 40.4458 158.875 40.8621 158.255 41.4737C157.636 42.0854 157.214 42.8649 157.042 43.7137C156.871 44.5625 156.959 45.4425 157.294 46.2422C157.628 47.0419 158.196 47.7255 158.924 48.2064C159.652 48.6874 160.508 48.9441 161.384 48.9441C162.557 48.9441 163.683 48.4838 164.513 47.6644C165.343 46.8451 165.81 45.7335 165.811 44.5741Z" fill="#4EEED0"/>
<path d="M165.452 44.574C165.452 43.7848 165.216 43.0133 164.773 42.3568C164.33 41.7003 163.7 41.1882 162.962 40.8851C162.225 40.582 161.413 40.5014 160.63 40.6536C159.846 40.8057 159.126 41.1838 158.56 41.7401C157.993 42.2963 157.606 43.0059 157.447 43.7793C157.288 44.5527 157.365 45.3552 157.667 46.0857C157.969 46.8162 158.483 47.4419 159.145 47.8839C159.806 48.3259 160.586 48.5645 161.384 48.5694C161.917 48.5727 162.446 48.4718 162.939 48.2725C163.432 48.0731 163.881 47.7794 164.259 47.408C164.637 47.0367 164.937 46.5951 165.142 46.1087C165.347 45.6224 165.452 45.1008 165.452 44.574Z" fill="#5D5D5D"/>
<path d="M163.962 44.574C163.963 44.0701 163.812 43.5771 163.53 43.1576C163.247 42.7381 162.845 42.4108 162.374 42.2173C161.903 42.0237 161.385 41.9726 160.885 42.0703C160.384 42.168 159.925 42.4102 159.564 42.7662C159.203 43.1222 158.957 43.5761 158.857 44.0703C158.757 44.5645 158.808 45.0769 159.003 45.5426C159.198 46.0083 159.528 46.4064 159.952 46.6865C160.376 46.9666 160.874 47.1161 161.384 47.1161C162.067 47.1161 162.722 46.8485 163.205 46.3719C163.688 45.8953 163.96 45.2487 163.962 44.574Z" fill="#484848"/>
<path d="M162.183 44.574C162.183 44.4179 162.136 44.2654 162.048 44.1356C161.96 44.0058 161.836 43.9047 161.69 43.845C161.544 43.7853 161.383 43.7696 161.228 43.8001C161.074 43.8305 160.931 43.9057 160.82 44.016C160.708 44.1264 160.632 44.267 160.601 44.4201C160.57 44.5731 160.586 44.7318 160.646 44.876C160.707 45.0202 160.809 45.1434 160.941 45.2301C161.072 45.3168 161.226 45.3631 161.384 45.3631C161.489 45.3638 161.593 45.3438 161.691 45.3044C161.788 45.265 161.876 45.2069 161.95 45.1335C162.025 45.0601 162.083 44.9728 162.123 44.8768C162.163 44.7807 162.183 44.6778 162.183 44.574Z" fill="#191919"/>
<path d="M161.384 50.642C162.191 50.6427 162.99 50.4862 163.735 50.1816C164.481 49.8769 165.158 49.43 165.729 48.8665C166.3 48.303 166.753 47.6338 167.061 46.8973C167.37 46.1607 167.529 45.3713 167.529 44.574H166.286C166.245 45.8273 165.713 47.0158 164.801 47.8881C163.89 48.7604 162.671 49.2482 161.402 49.2482C160.133 49.2482 158.914 48.7604 158.002 47.8881C157.091 47.0158 156.558 45.8273 156.517 44.574H155.259C155.259 46.1807 155.904 47.7219 157.052 48.8595C158.2 49.997 159.758 50.6381 161.384 50.642Z" fill="#191919"/>
<path d="M161.384 37.2124C159.409 37.2137 157.516 37.9899 156.12 39.3703C154.724 40.7507 153.94 42.6224 153.94 44.574H155.244C155.22 43.7621 155.362 42.9539 155.66 42.197C155.958 41.4401 156.407 40.75 156.98 40.1676C157.552 39.5851 158.237 39.1221 158.994 38.8059C159.751 38.4897 160.565 38.3268 161.387 38.3268C162.209 38.3268 163.022 38.4897 163.779 38.8059C164.536 39.1221 165.221 39.5851 165.794 40.1676C166.367 40.75 166.815 41.4401 167.114 42.197C167.412 42.9539 167.553 43.7621 167.53 44.574H168.813C168.813 42.625 168.031 40.7556 166.639 39.3756C165.246 37.9956 163.356 37.2177 161.384 37.2124Z" fill="#5D5D5D"/>
<path d="M161.794 42.7911C161.795 42.7109 161.771 42.6322 161.727 42.565C161.683 42.4979 161.619 42.4452 161.544 42.4138C161.47 42.3825 161.387 42.3737 161.307 42.3888C161.228 42.4038 161.154 42.4419 161.097 42.4983C161.039 42.5547 160.999 42.6267 160.983 42.7054C160.967 42.784 160.975 42.8656 161.006 42.9398C161.036 43.014 161.089 43.0775 161.156 43.1221C161.224 43.1668 161.303 43.1907 161.384 43.1907C161.492 43.1907 161.595 43.1487 161.672 43.0739C161.748 42.9992 161.792 42.8975 161.794 42.7911Z" fill="#191919"/>
<path d="M160.025 43.3305C159.932 43.2893 159.827 43.2837 159.73 43.3148C159.633 43.3459 159.552 43.4115 159.501 43.4987C159.451 43.586 159.435 43.6888 159.457 43.7869C159.479 43.8851 159.537 43.9716 159.62 44.0297C159.713 44.0709 159.818 44.0765 159.915 44.0454C160.012 44.0143 160.093 43.9488 160.144 43.8615C160.194 43.7742 160.21 43.6714 160.188 43.5733C160.166 43.4751 160.108 43.3886 160.025 43.3305Z" fill="#191919"/>
<path d="M159.62 45.1135C159.537 45.1715 159.479 45.2581 159.457 45.3562C159.435 45.4544 159.451 45.5571 159.501 45.6444C159.552 45.7317 159.633 45.7973 159.73 45.8284C159.827 45.8595 159.932 45.8539 160.025 45.8127C160.108 45.7546 160.166 45.6681 160.188 45.5699C160.21 45.4717 160.194 45.369 160.144 45.2817C160.093 45.1944 160.012 45.1288 159.915 45.0977C159.818 45.0666 159.713 45.0722 159.62 45.1135Z" fill="#191919"/>
<path d="M160.98 46.357C160.98 46.4372 161.004 46.5156 161.049 46.5822C161.094 46.6488 161.159 46.7007 161.234 46.7312C161.309 46.7616 161.391 46.7693 161.471 46.7533C161.55 46.7373 161.623 46.6983 161.68 46.6412C161.737 46.5841 161.776 46.5116 161.791 46.4328C161.806 46.354 161.798 46.2725 161.766 46.1987C161.734 46.1248 161.681 46.062 161.613 46.0182C161.545 45.9743 161.465 45.9514 161.384 45.9524C161.331 45.9524 161.278 45.9629 161.228 45.9833C161.179 46.0037 161.134 46.0336 161.096 46.0712C161.059 46.1088 161.029 46.1535 161.009 46.2025C160.989 46.2516 160.979 46.3041 160.98 46.357Z" fill="#191919"/>
<path d="M162.749 45.8125C162.818 45.8533 162.899 45.8728 162.98 45.8682C163.061 45.8637 163.139 45.8355 163.204 45.7871C163.269 45.7388 163.317 45.6724 163.344 45.5966C163.371 45.5207 163.374 45.4388 163.353 45.3612C163.332 45.2836 163.289 45.2139 163.228 45.1608C163.167 45.1078 163.091 45.0738 163.011 45.0633C162.93 45.0528 162.848 45.0662 162.776 45.1017C162.703 45.1373 162.642 45.1935 162.602 45.2631C162.575 45.3086 162.557 45.359 162.55 45.4113C162.542 45.4637 162.546 45.5169 162.559 45.568C162.573 45.6191 162.597 45.667 162.629 45.709C162.662 45.7509 162.702 45.7861 162.749 45.8125Z" fill="#191919"/>
<path d="M163.153 44.0296C163.24 43.9729 163.302 43.8853 163.327 43.7847C163.351 43.6841 163.335 43.5783 163.283 43.4888C163.23 43.3994 163.145 43.3331 163.045 43.3036C162.945 43.2742 162.837 43.2838 162.744 43.3304C162.651 43.3846 162.584 43.4726 162.556 43.5754C162.529 43.6782 162.543 43.7875 162.597 43.8798C162.623 43.926 162.658 43.9666 162.701 43.9992C162.743 44.0318 162.791 44.0558 162.843 44.0697C162.895 44.0837 162.949 44.0873 163.002 44.0804C163.055 44.0735 163.107 44.0563 163.153 44.0296Z" fill="#191919"/>
<path d="M161.773 41.0229H161C160.909 41.0229 160.821 41.0587 160.757 41.1224C160.693 41.1861 160.656 41.2725 160.656 41.3626C160.656 41.4076 160.664 41.4523 160.681 41.4941C160.698 41.5358 160.723 41.5739 160.755 41.6059C160.787 41.638 160.825 41.6635 160.867 41.6808C160.909 41.6982 160.954 41.7072 161 41.7072H161.773C161.819 41.7072 161.864 41.6982 161.906 41.6808C161.948 41.6635 161.986 41.638 162.018 41.6059C162.05 41.5739 162.075 41.5358 162.092 41.4941C162.109 41.4523 162.117 41.4076 162.117 41.3626C162.117 41.2725 162.081 41.1861 162.016 41.1224C161.952 41.0587 161.864 41.0229 161.773 41.0229Z" fill="#191919"/>
<path d="M158.468 42.4665L158.084 43.1307C158.061 43.1694 158.047 43.2121 158.041 43.2564C158.035 43.3007 158.038 43.3457 158.05 43.3888C158.061 43.432 158.082 43.4724 158.109 43.5078C158.137 43.5432 158.171 43.5729 158.21 43.5952C158.249 43.6175 158.293 43.632 158.338 43.6379C158.382 43.6437 158.428 43.6407 158.472 43.6291C158.515 43.6175 158.556 43.5975 158.592 43.5703C158.628 43.543 158.658 43.509 158.68 43.4703L159.069 42.8061C159.113 42.7274 159.123 42.6353 159.1 42.5489C159.076 42.4625 159.02 42.3883 158.943 42.3416C158.863 42.2962 158.769 42.2838 158.68 42.3072C158.591 42.3306 158.515 42.3879 158.468 42.4665Z" fill="#191919"/>
<path d="M158.084 46.0173L158.468 46.6766C158.515 46.7551 158.591 46.8124 158.68 46.8358C158.769 46.8592 158.863 46.8468 158.943 46.8014C159.021 46.7556 159.078 46.6813 159.102 46.5946C159.125 46.5078 159.114 46.4154 159.069 46.337L158.706 45.6777C158.659 45.6005 158.584 45.5442 158.496 45.5208C158.408 45.4975 158.315 45.509 158.236 45.5528C158.195 45.5735 158.158 45.6018 158.129 45.6363C158.099 45.6709 158.076 45.7108 158.062 45.754C158.048 45.7971 158.043 45.8426 158.047 45.8878C158.05 45.933 158.063 45.977 158.084 46.0173Z" fill="#191919"/>
<path d="M161 48.1199H161.773C161.818 48.1206 161.863 48.1123 161.905 48.0955C161.947 48.0786 161.986 48.0536 162.018 48.022C162.05 47.9903 162.075 47.9526 162.092 47.9111C162.109 47.8696 162.117 47.8251 162.117 47.7803C162.117 47.7355 162.109 47.6911 162.092 47.6496C162.075 47.6081 162.05 47.5704 162.018 47.5387C161.986 47.507 161.947 47.482 161.905 47.4652C161.863 47.4484 161.818 47.44 161.773 47.4407H161C160.955 47.44 160.91 47.4484 160.868 47.4652C160.826 47.482 160.787 47.507 160.755 47.5387C160.723 47.5704 160.698 47.6081 160.681 47.6496C160.664 47.6911 160.656 47.7355 160.656 47.7803C160.656 47.8251 160.664 47.8696 160.681 47.9111C160.698 47.9526 160.723 47.9903 160.755 48.022C160.787 48.0536 160.826 48.0786 160.868 48.0955C160.91 48.1123 160.955 48.1206 161 48.1199Z" fill="#191919"/>
<path d="M164.3 46.6767L164.689 46.0174C164.735 45.9385 164.748 45.8449 164.724 45.757C164.7 45.669 164.643 45.5939 164.563 45.548C164.484 45.5041 164.39 45.4926 164.302 45.516C164.215 45.5393 164.139 45.5956 164.093 45.6728L163.704 46.3371C163.681 46.3757 163.667 46.4185 163.661 46.4628C163.655 46.507 163.658 46.5521 163.67 46.5952C163.681 46.6384 163.701 46.6788 163.729 46.7142C163.757 46.7496 163.791 46.7793 163.83 46.8015C163.869 46.8246 163.912 46.8396 163.957 46.8458C164.002 46.852 164.048 46.8492 164.092 46.8375C164.136 46.8259 164.177 46.8056 164.213 46.778C164.248 46.7504 164.278 46.7159 164.3 46.6767Z" fill="#191919"/>
<path d="M164.689 43.1305L164.3 42.4663C164.278 42.4271 164.248 42.3926 164.213 42.365C164.177 42.3373 164.136 42.3171 164.092 42.3054C164.048 42.2938 164.002 42.291 163.957 42.2971C163.912 42.3033 163.869 42.3184 163.83 42.3414C163.752 42.3873 163.695 42.4615 163.671 42.5483C163.648 42.635 163.659 42.7275 163.704 42.8059L164.093 43.4701C164.115 43.5089 164.145 43.5429 164.181 43.5701C164.217 43.5974 164.258 43.6174 164.302 43.629C164.345 43.6406 164.391 43.6435 164.436 43.6377C164.481 43.6319 164.524 43.6174 164.563 43.595C164.602 43.5727 164.636 43.5431 164.664 43.5077C164.692 43.4723 164.712 43.4318 164.724 43.3887C164.735 43.3455 164.738 43.3005 164.732 43.2562C164.727 43.2119 164.712 43.1692 164.689 43.1305Z" fill="#191919"/>
<path d="M184.277 41.0229H182.109V47.7802H184.277V41.0229Z" fill="#191919"/>
<path d="M31.9595 22.2844L29.938 8.74487L14.6254 10.8225C13.6832 10.9466 12.7826 11.2838 11.9938 11.8078C11.2049 12.3319 10.549 13.0287 10.077 13.844L3.59318 25.1261C2.36444 27.2564 1.71826 29.6661 1.71826 32.1181V36.613H3.31017V47.0261H18.0972L32.2475 41.4874V25.7804C32.2375 24.6097 32.1412 23.4413 31.9595 22.2844Z" fill="#4EEED0"/>
<path d="M6.81226 44.3843H13.7257V47.0163H8.0403C7.7146 47.0163 7.40224 46.8884 7.17194 46.6608C6.94164 46.4332 6.81226 46.1245 6.81226 45.8027V44.3843Z" fill="#484848"/>
<path d="M22.1148 13.879V32.5626L17.8141 34.5853L13.5033 43.3403H8.42438C7.99681 43.3403 7.58677 43.1725 7.28443 42.8737C6.9821 42.5749 6.81226 42.1697 6.81226 41.7471V28.9118C6.81276 27.7703 7.02871 26.6389 7.44902 25.5756L12.2247 13.5244C12.3001 13.3403 12.4293 13.1826 12.5959 13.0714C12.7624 12.9602 12.9587 12.9005 13.1597 12.9001H21.1445C21.402 12.9103 21.6459 13.0173 21.8263 13.1992C22.0066 13.3812 22.1098 13.6244 22.1148 13.879Z" stroke="#50CAB3" stroke-width="0.79" stroke-miterlimit="10"/>
<path d="M19.7042 47.6306L16.8843 37.0876H55.6662L51.977 47.6306H19.7042Z" fill="#4EEED0"/>
<path d="M33.0964 44.574C33.1027 43.0809 32.7714 41.6053 32.1266 40.2549C31.4819 38.9046 30.54 37.7137 29.3699 36.7692C28.1997 35.8246 26.8308 35.1504 25.3632 34.7957C23.8956 34.441 22.3663 34.4148 20.8872 34.7191C19.408 35.0233 18.0163 35.6502 16.8137 36.5541C15.6112 37.458 14.6281 38.6159 13.9364 39.9434C13.2447 41.2708 12.8618 42.7342 12.8158 44.2266C12.7697 45.719 13.0616 47.2028 13.6701 48.5694H15.9998L26.2082 45.1583L26.8652 47.6105H32.6113C32.9306 46.6291 33.0942 45.6048 33.0964 44.574Z" fill="#191919"/>
<path d="M68.2702 47.6304C68.7598 46.1269 68.883 44.5303 68.6296 42.9708C68.3763 41.4114 67.7537 39.9331 66.8124 38.6566C65.8712 37.3801 64.6381 36.3415 63.2135 35.6254C61.789 34.9094 60.2134 34.5361 58.6151 34.5361C57.0169 34.5361 55.4413 34.9094 54.0168 35.6254C52.5922 36.3415 51.3591 37.3801 50.4179 38.6566C49.4766 39.9331 48.854 41.4114 48.6006 42.9708C48.3473 44.5303 48.4705 46.1269 48.9601 47.6304H68.2702Z" fill="#191919"/>
<path d="M59.9106 52.4426C64.3043 51.7346 67.2854 47.6408 66.5691 43.2987C65.8527 38.9566 61.7102 36.0105 57.3164 36.7184C52.9227 37.4264 49.9416 41.5202 50.6579 45.8623C51.3743 50.2044 55.5168 53.1505 59.9106 52.4426Z" fill="#484848"/>
<path d="M63.0396 44.5741C63.0406 43.7084 62.7817 42.8618 62.2956 42.1416C61.8095 41.4214 61.1182 40.8598 60.3091 40.5281C59.4999 40.1963 58.6094 40.1093 57.7501 40.2779C56.8909 40.4466 56.1016 40.8633 55.4822 41.4755C54.8628 42.0877 54.441 42.8677 54.2704 43.7168C54.0997 44.5659 54.1878 45.446 54.5235 46.2456C54.8592 47.0453 55.4274 47.7285 56.1562 48.2088C56.885 48.6892 57.7416 48.9451 58.6176 48.9441C59.79 48.9428 60.914 48.4819 61.7429 47.6627C62.5719 46.8434 63.0383 45.7327 63.0396 44.5741Z" fill="#4EEED0"/>
<path d="M62.6857 44.574C62.6857 43.7838 62.4486 43.0114 62.0044 42.3543C61.5601 41.6973 60.9287 41.1852 60.19 40.8827C59.4512 40.5803 58.6383 40.5012 57.8541 40.6554C57.0698 40.8096 56.3494 41.1901 55.784 41.7489C55.2186 42.3076 54.8335 43.0195 54.6775 43.7946C54.5215 44.5696 54.6016 45.373 54.9076 46.103C55.2136 46.8331 55.7318 47.4571 56.3967 47.8961C57.0615 48.3351 57.8432 48.5695 58.6428 48.5695C59.7151 48.5695 60.7434 48.1485 61.5016 47.3992C62.2598 46.65 62.6857 45.6337 62.6857 44.574Z" fill="#5D5D5D"/>
<path d="M61.1696 44.574C61.1706 44.0699 61.0202 43.5767 60.7374 43.1571C60.4546 42.7375 60.0521 42.4102 59.5809 42.2168C59.1098 42.0234 58.5911 41.9726 58.0907 42.0707C57.5903 42.1688 57.1305 42.4115 56.7698 42.768C56.409 43.1245 56.1635 43.5788 56.0642 44.0734C55.9649 44.5679 56.0163 45.0805 56.2121 45.5461C56.4078 46.0117 56.7389 46.4095 57.1635 46.689C57.5881 46.9685 58.0871 47.1171 58.5973 47.1161C58.9351 47.1161 59.2696 47.0504 59.5817 46.9226C59.8938 46.7949 60.1774 46.6076 60.4162 46.3716C60.6551 46.1355 60.8446 45.8553 60.9738 45.5469C61.1031 45.2384 61.1696 44.9079 61.1696 44.574Z" fill="#484848"/>
<path d="M59.4161 44.574C59.4161 44.4179 59.3692 44.2654 59.2815 44.1356C59.1937 44.0058 59.069 43.9047 58.9231 43.845C58.7772 43.7853 58.6167 43.7696 58.4618 43.8001C58.3069 43.8305 58.1646 43.9057 58.053 44.016C57.9413 44.1264 57.8652 44.267 57.8344 44.4201C57.8036 44.5731 57.8194 44.7318 57.8799 44.876C57.9403 45.0202 58.0427 45.1434 58.174 45.2301C58.3053 45.3168 58.4596 45.3631 58.6176 45.3631C58.8293 45.3631 59.0324 45.28 59.1822 45.132C59.3319 44.984 59.4161 44.7833 59.4161 44.574Z" fill="#191919"/>
<path d="M58.6428 50.642C60.2713 50.642 61.8331 50.0027 62.9846 48.8647C64.1361 47.7268 64.783 46.1833 64.783 44.574H63.5247C63.4839 45.8273 62.9514 47.0158 62.0399 47.8881C61.1283 48.7604 59.9092 49.2482 58.6403 49.2482C57.3714 49.2482 56.1523 48.7604 55.2407 47.8881C54.3292 47.0158 53.7967 45.8273 53.7559 44.574H52.4976C52.4976 45.3713 52.6566 46.1607 52.9654 46.8973C53.2743 47.6338 53.7271 48.303 54.2978 48.8665C54.8685 49.43 55.546 49.8769 56.2915 50.1816C57.0371 50.4862 57.8361 50.6427 58.6428 50.642Z" fill="#191919"/>
<path d="M58.6427 37.2124C57.6645 37.2124 56.6958 37.4028 55.7921 37.7728C54.8883 38.1427 54.0671 38.685 53.3754 39.3686C52.6837 40.0521 52.135 40.8637 51.7606 41.7568C51.3863 42.65 51.1936 43.6072 51.1936 44.574H52.4975C52.4739 43.7621 52.6153 42.9539 52.9134 42.197C53.2115 41.4401 53.6602 40.75 54.233 40.1676C54.8057 39.5851 55.4909 39.1221 56.2479 38.8059C57.0049 38.4897 57.8184 38.3268 58.6402 38.3268C59.462 38.3268 60.2755 38.4897 61.0325 38.8059C61.7895 39.1221 62.4747 39.5851 63.0474 40.1676C63.6202 40.75 64.0689 41.4401 64.367 42.197C64.6651 42.9539 64.8065 43.7621 64.7829 44.574H66.0868C66.0875 43.6075 65.8954 42.6503 65.5216 41.7572C65.1478 40.8641 64.5996 40.0525 63.9083 39.3689C63.217 38.6852 62.3961 38.1429 61.4926 37.7729C60.5891 37.4028 59.6207 37.2124 58.6427 37.2124Z" fill="#5D5D5D"/>
<path d="M59.0218 42.7911C59.0228 42.7107 58.9995 42.6318 58.9549 42.5645C58.9103 42.4972 58.8464 42.4446 58.7714 42.4133C58.6964 42.3821 58.6137 42.3737 58.5338 42.3891C58.454 42.4046 58.3806 42.4432 58.323 42.5001C58.2655 42.5569 58.2264 42.6295 58.2107 42.7084C58.1951 42.7874 58.2036 42.8691 58.2353 42.9432C58.2669 43.0173 58.3201 43.0805 58.3882 43.1245C58.4563 43.1686 58.5361 43.1916 58.6175 43.1906C58.7247 43.1906 58.8276 43.1485 58.9034 43.0736C58.9792 42.9987 59.0218 42.8971 59.0218 42.7911Z" fill="#191919"/>
<path d="M57.258 43.3304C57.1881 43.2895 57.1075 43.2701 57.0265 43.2746C56.9454 43.2791 56.8675 43.3073 56.8027 43.3557C56.7379 43.4041 56.6892 43.4704 56.6626 43.5462C56.6361 43.6221 56.633 43.704 56.6537 43.7816C56.6744 43.8592 56.7179 43.9289 56.7789 43.982C56.8398 44.035 56.9153 44.069 56.9958 44.0795C57.0763 44.09 57.1582 44.0767 57.231 44.0411C57.3037 44.0055 57.3642 43.9493 57.4046 43.8797C57.4581 43.7875 57.4727 43.6781 57.4453 43.5753C57.4179 43.4725 57.3506 43.3845 57.258 43.3304Z" fill="#191919"/>
<path d="M56.8488 45.1133C56.7782 45.1527 56.721 45.212 56.6845 45.2836C56.6481 45.3553 56.634 45.436 56.644 45.5155C56.6541 45.5951 56.6878 45.6699 56.7409 45.7305C56.7941 45.791 56.8642 45.8346 56.9425 45.8557C57.0208 45.8768 57.1036 45.8745 57.1805 45.8489C57.2574 45.8234 57.3249 45.7759 57.3744 45.7124C57.424 45.6489 57.4533 45.5723 57.4587 45.4923C57.464 45.4123 57.4453 45.3325 57.4047 45.2631C57.3784 45.2169 57.3432 45.1763 57.3009 45.1437C57.2586 45.1111 57.2102 45.0871 57.1585 45.0732C57.1067 45.0592 57.0527 45.0556 56.9995 45.0625C56.9464 45.0694 56.8951 45.0866 56.8488 45.1133Z" fill="#191919"/>
<path d="M58.2083 46.357C58.2083 46.437 58.2323 46.5152 58.2773 46.5817C58.3222 46.6482 58.3862 46.7001 58.461 46.7307C58.5358 46.7613 58.6181 46.7693 58.6975 46.7537C58.7769 46.7381 58.8498 46.6996 58.9071 46.643C58.9643 46.5864 59.0033 46.5144 59.0191 46.4359C59.0349 46.3574 59.0268 46.2761 58.9958 46.2022C58.9648 46.1282 58.9124 46.065 58.8451 46.0206C58.7777 45.9761 58.6986 45.9524 58.6176 45.9524C58.5637 45.9518 58.5102 45.9618 58.4602 45.9818C58.4102 46.0019 58.3648 46.0317 58.3267 46.0694C58.2885 46.1071 58.2584 46.152 58.2381 46.2014C58.2177 46.2507 58.2076 46.3036 58.2083 46.357Z" fill="#191919"/>
<path d="M59.9771 45.8127C60.0473 45.8528 60.128 45.8714 60.209 45.866C60.2899 45.8607 60.3674 45.8318 60.4317 45.7828C60.496 45.7339 60.544 45.6672 60.5699 45.5912C60.5957 45.5152 60.5981 45.4333 60.5767 45.356C60.5554 45.2786 60.5113 45.2093 60.45 45.1568C60.3887 45.1042 60.313 45.0709 60.2325 45.061C60.152 45.051 60.0703 45.065 59.9979 45.101C59.9254 45.137 59.8654 45.1935 59.8255 45.2633C59.7724 45.3562 59.7585 45.466 59.7869 45.5688C59.8153 45.6717 59.8836 45.7594 59.9771 45.8127Z" fill="#191919"/>
<path d="M60.3813 44.0297C60.4519 43.9902 60.5091 43.9309 60.5455 43.8593C60.582 43.7877 60.5961 43.707 60.5861 43.6274C60.576 43.5478 60.5423 43.473 60.4891 43.4125C60.436 43.3519 60.3658 43.3083 60.2876 43.2872C60.2093 43.2661 60.1265 43.2685 60.0495 43.294C59.9726 43.3195 59.9052 43.367 59.8556 43.4305C59.8061 43.494 59.7768 43.5706 59.7714 43.6506C59.766 43.7306 59.7848 43.8104 59.8254 43.8798C59.8794 43.9722 59.968 44.0397 60.0722 44.0678C60.1763 44.0958 60.2874 44.0821 60.3813 44.0297Z" fill="#191919"/>
<path d="M59.0017 41.0229H58.2284C58.1373 41.0229 58.0499 41.0587 57.9855 41.1224C57.921 41.1861 57.8848 41.2725 57.8848 41.3626C57.8841 41.4076 57.8925 41.4523 57.9095 41.4941C57.9265 41.5358 57.9517 41.5739 57.9837 41.6059C58.0156 41.638 58.0537 41.6635 58.0958 41.6808C58.1378 41.6982 58.1829 41.7072 58.2284 41.7072H59.0017C59.0942 41.7072 59.1828 41.6709 59.2482 41.6062C59.3136 41.5416 59.3504 41.454 59.3504 41.3626C59.349 41.272 59.3117 41.1857 59.2465 41.1221C59.1812 41.0586 59.0933 41.0229 59.0017 41.0229Z" fill="#191919"/>
<path d="M55.7016 42.4663L55.3125 43.1305C55.2899 43.1692 55.2752 43.2119 55.2693 43.2562C55.2634 43.3005 55.2664 43.3455 55.2781 43.3887C55.2899 43.4318 55.3101 43.4723 55.3377 43.5077C55.3653 43.5431 55.3996 43.5727 55.4388 43.595C55.478 43.6174 55.5212 43.6319 55.566 43.6377C55.6108 43.6435 55.6564 43.6406 55.7001 43.629C55.7437 43.6174 55.7846 43.5974 55.8205 43.5701C55.8563 43.5429 55.8863 43.5089 55.9088 43.4701L56.298 42.8059C56.3423 42.7275 56.3539 42.635 56.3303 42.5483C56.3067 42.4615 56.2498 42.3873 56.1716 42.3414C56.1327 42.3184 56.0894 42.3033 56.0444 42.2971C55.9995 42.291 55.9537 42.2938 55.9098 42.3054C55.866 42.3171 55.825 42.3373 55.7892 42.365C55.7534 42.3926 55.7236 42.4271 55.7016 42.4663Z" fill="#191919"/>
<path d="M55.3126 46.0173L55.7017 46.6765C55.7237 46.7157 55.7535 46.7502 55.7893 46.7778C55.8251 46.8055 55.8661 46.8257 55.9099 46.8374C55.9538 46.849 55.9996 46.8518 56.0445 46.8457C56.0895 46.8395 56.1328 46.8244 56.1717 46.8014C56.2109 46.7791 56.2453 46.7494 56.2729 46.714C56.3005 46.6786 56.3207 46.6382 56.3324 46.595C56.3442 46.5519 56.3472 46.5069 56.3413 46.4626C56.3354 46.4183 56.3207 46.3756 56.2981 46.3369L55.9089 45.6727C55.8864 45.6339 55.8564 45.5999 55.8206 45.5727C55.7847 45.5454 55.7438 45.5254 55.7002 45.5138C55.6565 45.5022 55.6109 45.4993 55.5661 45.5051C55.5213 45.5109 55.4781 45.5254 55.4389 45.5478C55.3594 45.5937 55.3015 45.6688 55.2778 45.7568C55.2542 45.8447 55.2667 45.9384 55.3126 46.0173Z" fill="#191919"/>
<path d="M58.2285 48.1199H59.0017C59.0472 48.1206 59.0925 48.1123 59.1347 48.0955C59.177 48.0788 59.2155 48.0538 59.2479 48.0222C59.2804 47.9906 59.3062 47.953 59.3237 47.9114C59.3413 47.8699 59.3504 47.8253 59.3504 47.7803C59.3504 47.7353 59.3413 47.6907 59.3237 47.6492C59.3062 47.6077 59.2804 47.57 59.2479 47.5384C59.2155 47.5068 59.177 47.4819 59.1347 47.4651C59.0925 47.4483 59.0472 47.44 59.0017 47.4407H58.2285C58.1831 47.44 58.1381 47.4484 58.0961 47.4652C58.0541 47.482 58.016 47.507 57.9839 47.5387C57.9519 47.5704 57.9266 47.6081 57.9096 47.6496C57.8925 47.6911 57.8841 47.7355 57.8848 47.7803C57.8841 47.8251 57.8925 47.8696 57.9096 47.9111C57.9266 47.9526 57.9519 47.9903 57.9839 48.022C58.016 48.0536 58.0541 48.0786 58.0961 48.0955C58.1381 48.1123 58.1831 48.1206 58.2285 48.1199Z" fill="#191919"/>
<path d="M61.5337 46.6767L61.9177 46.0174C61.9637 45.9385 61.9762 45.8449 61.9525 45.757C61.9288 45.669 61.8709 45.5939 61.7914 45.548C61.712 45.5041 61.6185 45.4926 61.5307 45.516C61.4429 45.5393 61.3678 45.5956 61.3214 45.6728L60.9323 46.3371C60.8879 46.4155 60.8763 46.5079 60.8999 46.5947C60.9235 46.6814 60.9804 46.7557 61.0586 46.8015C61.1384 46.8469 61.2332 46.8593 61.3222 46.8359C61.4112 46.8125 61.4872 46.7553 61.5337 46.6767Z" fill="#191919"/>
<path d="M61.9177 43.1307L61.5337 42.4665C61.4872 42.3879 61.4112 42.3306 61.3222 42.3072C61.2332 42.2838 61.1384 42.2962 61.0586 42.3416C60.9814 42.3883 60.9253 42.4625 60.9018 42.5489C60.8783 42.6353 60.8892 42.7274 60.9323 42.8061L61.3214 43.4703C61.3439 43.509 61.3739 43.543 61.4098 43.5703C61.4456 43.5975 61.4865 43.6175 61.5302 43.6291C61.5738 43.6407 61.6194 43.6437 61.6642 43.6379C61.709 43.632 61.7523 43.6175 61.7914 43.5952C61.8306 43.5729 61.865 43.5432 61.8925 43.5078C61.9201 43.4724 61.9404 43.432 61.9521 43.3888C61.9638 43.3457 61.9668 43.3007 61.9609 43.2564C61.955 43.2121 61.9404 43.1694 61.9177 43.1307Z" fill="#191919"/>
<path d="M26.0721 51.9222C30.1781 50.2223 32.1123 45.5548 30.3922 41.497C28.6721 37.4393 23.9491 35.5278 19.843 37.2277C15.737 38.9276 13.8029 43.5951 15.523 47.6529C17.2431 51.7106 21.9661 53.6221 26.0721 51.9222Z" fill="#484848"/>
<path d="M27.3808 44.5741C27.3808 43.7098 27.1215 42.8649 26.6356 42.1463C26.1497 41.4276 25.4591 40.8675 24.651 40.5367C23.843 40.206 22.9539 40.1195 22.0962 40.2881C21.2384 40.4567 20.4505 40.8729 19.832 41.484C19.2136 42.0952 18.7925 42.8739 18.6218 43.7216C18.4512 44.5693 18.5388 45.4479 18.8735 46.2464C19.2082 47.0449 19.7749 47.7274 20.5021 48.2076C21.2293 48.6878 22.0843 48.9441 22.9588 48.9441C24.1312 48.9428 25.2552 48.4819 26.0842 47.6627C26.9132 46.8434 27.3795 45.7327 27.3808 44.5741Z" fill="#4EEED0"/>
<path d="M25.7537 44.5738C25.7537 44.0276 25.5898 43.4936 25.2827 43.0395C24.9756 42.5853 24.5391 42.2313 24.0285 42.0222C23.5178 41.8132 22.9559 41.7585 22.4138 41.8651C21.8717 41.9716 21.3737 42.2347 20.9829 42.6209C20.592 43.0072 20.3258 43.4993 20.218 44.035C20.1102 44.5708 20.1655 45.1261 20.377 45.6308C20.5886 46.1354 20.9468 46.5668 21.4063 46.8702C21.8659 47.1737 22.4063 47.3357 22.959 47.3357C23.7002 47.3357 24.411 47.0447 24.9351 46.5268C25.4592 46.0088 25.7537 45.3063 25.7537 44.5738Z" fill="#484848"/>
<path d="M23.7725 44.574C23.7725 44.4179 23.7257 44.2654 23.6379 44.1356C23.5502 44.0058 23.4255 43.9047 23.2796 43.845C23.1337 43.7853 22.9731 43.7696 22.8182 43.8001C22.6634 43.8305 22.5211 43.9057 22.4094 44.016C22.2977 44.1264 22.2217 44.267 22.1909 44.4201C22.1601 44.5731 22.1759 44.7318 22.2363 44.876C22.2968 45.0202 22.3991 45.1434 22.5304 45.2301C22.6617 45.3168 22.8161 45.3631 22.974 45.3631C23.1858 45.3631 23.3889 45.28 23.5386 45.132C23.6884 44.984 23.7725 44.7833 23.7725 44.574Z" fill="#191919"/>
<path d="M22.9587 50.642C23.7651 50.642 24.5635 50.4851 25.3085 50.1801C26.0535 49.8752 26.7304 49.4282 27.3005 48.8647C27.8707 48.3013 28.323 47.6323 28.6316 46.8961C28.9401 46.1599 29.099 45.3708 29.099 44.574H27.8406C27.7998 45.8273 27.2673 47.0158 26.3558 47.8881C25.4442 48.7604 24.2251 49.2482 22.9562 49.2482C21.6873 49.2482 20.4682 48.7604 19.5567 47.8881C18.6451 47.0158 18.1126 45.8273 18.0718 44.574H16.8135C16.8135 45.3713 16.9725 46.1607 17.2814 46.8973C17.5902 47.6338 18.043 48.303 18.6137 48.8665C19.1844 49.43 19.8619 49.8769 20.6074 50.1816C21.353 50.4862 22.152 50.6427 22.9587 50.642Z" fill="#191919"/>
<path d="M22.9589 37.2124C20.9833 37.2124 19.0885 37.988 17.6916 39.3686C16.2946 40.7491 15.5098 42.6216 15.5098 44.574H16.8136C16.7901 43.7621 16.9315 42.9539 17.2296 42.197C17.5277 41.4401 17.9764 40.75 18.5491 40.1676C19.1219 39.5851 19.807 39.1221 20.564 38.8059C21.321 38.4897 22.1345 38.3268 22.9564 38.3268C23.7782 38.3268 24.5917 38.4897 25.3487 38.8059C26.1057 39.1221 26.7908 39.5851 27.3636 40.1676C27.9363 40.75 28.385 41.4401 28.6831 42.197C28.9812 42.9539 29.1227 43.7621 29.0991 44.574H30.403C30.4036 43.6075 30.2116 42.6503 29.8378 41.7572C29.464 40.8641 28.9157 40.0525 28.2244 39.3689C27.5331 38.6852 26.7123 38.1429 25.8088 37.7729C24.9053 37.4028 23.9369 37.2124 22.9589 37.2124Z" fill="#5D5D5D"/>
<path d="M23.3631 42.7911C23.3641 42.7107 23.3408 42.6318 23.2962 42.5645C23.2516 42.4972 23.1877 42.4446 23.1127 42.4133C23.0377 42.3821 22.955 42.3737 22.8752 42.3891C22.7953 42.4046 22.7219 42.4432 22.6643 42.5001C22.6068 42.5569 22.5677 42.6295 22.5521 42.7084C22.5364 42.7874 22.545 42.8691 22.5766 42.9432C22.6082 43.0173 22.6614 43.0805 22.7295 43.1245C22.7976 43.1686 22.8774 43.1916 22.9588 43.1906C23.066 43.1906 23.1689 43.1485 23.2447 43.0736C23.3205 42.9987 23.3631 42.8971 23.3631 42.7911Z" fill="#191919"/>
<path d="M23.3631 41.1129C23.3641 41.0324 23.3408 40.9535 23.2962 40.8863C23.2516 40.819 23.1877 40.7664 23.1127 40.7351C23.0377 40.7039 22.955 40.6955 22.8752 40.7109C22.7953 40.7264 22.7219 40.765 22.6643 40.8219C22.6068 40.8787 22.5677 40.9513 22.5521 41.0302C22.5364 41.1091 22.545 41.1909 22.5766 41.265C22.6082 41.3391 22.6614 41.4023 22.7295 41.4463C22.7976 41.4904 22.8774 41.5134 22.9588 41.5124C23.0119 41.5124 23.0645 41.5021 23.1135 41.482C23.1626 41.4619 23.2071 41.4325 23.2447 41.3954C23.2822 41.3583 23.312 41.3142 23.3323 41.2658C23.3526 41.2173 23.3631 41.1653 23.3631 41.1129Z" fill="#191919"/>
<path d="M20.7707 41.8422C20.7344 41.7986 20.6893 41.7629 20.6383 41.7375C20.5873 41.7121 20.5314 41.6976 20.4744 41.6948C20.4173 41.6921 20.3603 41.7011 20.3069 41.7214C20.2536 41.7418 20.2052 41.7729 20.1648 41.8128C20.1244 41.8528 20.0929 41.9006 20.0724 41.9533C20.0518 42.006 20.0426 42.0623 20.0454 42.1187C20.0482 42.1751 20.0629 42.2303 20.0886 42.2807C20.1143 42.3312 20.1504 42.3758 20.1946 42.4116C20.2731 42.4753 20.3729 42.5078 20.4744 42.5029C20.5759 42.498 20.6719 42.4559 20.7437 42.3849C20.8156 42.3139 20.8581 42.219 20.8631 42.1187C20.8681 42.0184 20.8352 41.9199 20.7707 41.8422Z" fill="#191919"/>
<path d="M19.4566 44.1795C19.3755 44.1785 19.2958 44.2014 19.2279 44.2452C19.1599 44.2891 19.1066 44.3519 19.0749 44.4257C19.0431 44.4995 19.0343 44.581 19.0495 44.6598C19.0647 44.7386 19.1033 44.8112 19.1603 44.8682C19.2174 44.9253 19.2903 44.9644 19.3698 44.9804C19.4494 44.9964 19.532 44.9887 19.607 44.9582C19.6821 44.9277 19.7464 44.8759 19.7916 44.8093C19.8368 44.7426 19.8609 44.6642 19.8609 44.584C19.8609 44.4776 19.8185 44.3754 19.7428 44.2997C19.6672 44.224 19.5643 44.1808 19.4566 44.1795Z" fill="#191919"/>
<path d="M20.1944 46.7365C20.1564 46.7733 20.1261 46.8171 20.1055 46.8656C20.0849 46.9141 20.0742 46.9661 20.0742 47.0187C20.0742 47.0713 20.0849 47.1233 20.1055 47.1718C20.1261 47.2202 20.1564 47.2641 20.1944 47.3009C20.2509 47.3568 20.323 47.395 20.4014 47.4105C20.4799 47.426 20.5612 47.4181 20.6351 47.3879C20.7091 47.3577 20.7723 47.3065 20.8167 47.2408C20.8612 47.175 20.8849 47.0977 20.8849 47.0187C20.8849 46.9396 20.8612 46.8623 20.8167 46.7966C20.7723 46.7309 20.7091 46.6797 20.6351 46.6495C20.5612 46.6192 20.4799 46.6114 20.4014 46.6269C20.323 46.6424 20.2509 46.6805 20.1944 46.7365Z" fill="#191919"/>
<path d="M22.5496 48.0299C22.5486 48.1101 22.5717 48.1888 22.6161 48.256C22.6605 48.3232 22.7241 48.3758 22.7988 48.4072C22.8735 48.4386 22.9559 48.4473 23.0357 48.4323C23.1154 48.4172 23.1888 48.3791 23.2466 48.3227C23.3043 48.2664 23.3438 48.1943 23.36 48.1157C23.3762 48.0371 23.3684 47.9555 23.3376 47.8813C23.3068 47.8071 23.2543 47.7436 23.1869 47.6989C23.1195 47.6542 23.0401 47.6304 22.9589 47.6304C22.8512 47.6304 22.7479 47.6723 22.6713 47.7471C22.5946 47.8219 22.5509 47.9235 22.5496 48.0299Z" fill="#191919"/>
<path d="M25.1471 47.3009C25.2036 47.3568 25.2756 47.395 25.354 47.4105C25.4325 47.426 25.5138 47.4181 25.5878 47.3879C25.6617 47.3577 25.7249 47.3065 25.7694 47.2408C25.8138 47.175 25.8376 47.0977 25.8376 47.0187C25.8376 46.9396 25.8138 46.8623 25.7694 46.7966C25.7249 46.7309 25.6617 46.6797 25.5878 46.6495C25.5138 46.6192 25.4325 46.6114 25.354 46.6269C25.2756 46.6424 25.2036 46.6805 25.1471 46.7365C25.109 46.7733 25.0788 46.8171 25.0581 46.8656C25.0375 46.9141 25.0269 46.9661 25.0269 47.0187C25.0269 47.0713 25.0375 47.1233 25.0581 47.1718C25.0788 47.2202 25.109 47.2641 25.1471 47.3009Z" fill="#191919"/>
<path d="M26.4561 44.9736C26.5375 44.9746 26.6173 44.9516 26.6854 44.9075C26.7535 44.8634 26.8067 44.8003 26.8383 44.7262C26.8699 44.6521 26.8785 44.5703 26.8628 44.4914C26.8472 44.4125 26.8081 44.3399 26.7506 44.283C26.693 44.2262 26.6196 44.1875 26.5397 44.1721C26.4599 44.1566 26.3771 44.1651 26.3021 44.1963C26.2271 44.2275 26.1633 44.2802 26.1187 44.3475C26.0741 44.4147 26.0508 44.4936 26.0518 44.5741C26.0518 44.6265 26.0622 44.6785 26.0826 44.727C26.1029 44.7754 26.1327 44.8195 26.1702 44.8566C26.2077 44.8937 26.2523 44.9231 26.3014 44.9432C26.3504 44.9633 26.403 44.9736 26.4561 44.9736Z" fill="#191919"/>
<path d="M25.7233 42.4116C25.7992 42.3358 25.8418 42.2335 25.8418 42.1269C25.8418 42.0203 25.7992 41.918 25.7233 41.8422C25.6871 41.7986 25.642 41.7629 25.5909 41.7375C25.5399 41.7121 25.4841 41.6976 25.427 41.6948C25.3699 41.6921 25.3129 41.7011 25.2596 41.7214C25.2063 41.7418 25.1579 41.7729 25.1175 41.8128C25.077 41.8528 25.0456 41.9006 25.025 41.9533C25.0044 42.006 24.9952 42.0623 24.9981 42.1187C25.0009 42.1751 25.0156 42.2303 25.0413 42.2807C25.067 42.3312 25.103 42.3758 25.1472 42.4116C25.2239 42.4866 25.3274 42.5287 25.4353 42.5287C25.5432 42.5287 25.6467 42.4866 25.7233 42.4116Z" fill="#191919"/>
<path d="M21.5993 43.3304C21.5295 43.2895 21.4489 43.2701 21.3678 43.2746C21.2867 43.2791 21.2088 43.3073 21.144 43.3557C21.0792 43.4041 21.0305 43.4704 21.0039 43.5462C20.9774 43.6221 20.9743 43.704 20.995 43.7816C21.0157 43.8592 21.0593 43.9289 21.1202 43.982C21.1811 44.035 21.2566 44.069 21.3371 44.0795C21.4176 44.09 21.4995 44.0767 21.5723 44.0411C21.6451 44.0055 21.7055 43.9493 21.7459 43.8797C21.7994 43.7875 21.814 43.6781 21.7866 43.5753C21.7592 43.4725 21.6919 43.3845 21.5993 43.3304Z" fill="#191919"/>
<path d="M21.1901 45.1133C21.1195 45.1527 21.0623 45.212 21.0258 45.2836C20.9894 45.3553 20.9753 45.436 20.9853 45.5155C20.9954 45.5951 21.0291 45.6699 21.0823 45.7305C21.1354 45.791 21.2056 45.8346 21.2838 45.8557C21.3621 45.8768 21.4449 45.8745 21.5218 45.8489C21.5987 45.8234 21.6662 45.7759 21.7157 45.7124C21.7653 45.6489 21.7946 45.5723 21.8 45.4923C21.8054 45.4123 21.7866 45.3325 21.746 45.2631C21.7197 45.2169 21.6845 45.1763 21.6422 45.1437C21.5999 45.1111 21.5515 45.0871 21.4998 45.0732C21.4481 45.0592 21.394 45.0556 21.3409 45.0625C21.2877 45.0694 21.2364 45.0866 21.1901 45.1133Z" fill="#191919"/>
<path d="M22.5496 46.357C22.5496 46.437 22.5736 46.5152 22.6186 46.5817C22.6636 46.6482 22.7275 46.7001 22.8023 46.7307C22.8771 46.7613 22.9594 46.7693 23.0388 46.7537C23.1182 46.7381 23.1911 46.6996 23.2484 46.643C23.3056 46.5864 23.3446 46.5144 23.3604 46.4359C23.3762 46.3574 23.3681 46.2761 23.3371 46.2022C23.3061 46.1282 23.2537 46.065 23.1864 46.0206C23.119 45.9761 23.0399 45.9524 22.9589 45.9524C22.905 45.9518 22.8515 45.9618 22.8015 45.9818C22.7515 46.0019 22.7061 46.0317 22.668 46.0694C22.6298 46.1071 22.5997 46.152 22.5794 46.2014C22.559 46.2507 22.5489 46.3036 22.5496 46.357Z" fill="#191919"/>
<path d="M24.3184 45.8127C24.3886 45.8528 24.4693 45.8714 24.5503 45.866C24.6312 45.8607 24.7087 45.8318 24.773 45.7828C24.8373 45.7339 24.8854 45.6672 24.9112 45.5912C24.937 45.5152 24.9394 45.4333 24.918 45.356C24.8967 45.2786 24.8526 45.2093 24.7913 45.1568C24.73 45.1042 24.6543 45.0709 24.5738 45.061C24.4933 45.051 24.4116 45.065 24.3392 45.101C24.2667 45.137 24.2067 45.1935 24.1668 45.2633C24.1137 45.3562 24.0998 45.466 24.1282 45.5688C24.1566 45.6717 24.2249 45.7594 24.3184 45.8127Z" fill="#191919"/>
<path d="M24.7226 44.0297C24.7932 43.9902 24.8504 43.9309 24.8868 43.8593C24.9233 43.7877 24.9374 43.707 24.9274 43.6274C24.9173 43.5478 24.8836 43.473 24.8304 43.4125C24.7773 43.3519 24.7071 43.3083 24.6289 43.2872C24.5506 43.2661 24.4678 43.2685 24.3909 43.294C24.314 43.3195 24.2465 43.367 24.1969 43.4305C24.1474 43.494 24.1181 43.5706 24.1127 43.6506C24.1073 43.7306 24.1261 43.8104 24.1667 43.8798C24.2207 43.9722 24.3094 44.0397 24.4135 44.0678C24.5176 44.0958 24.6287 44.0821 24.7226 44.0297Z" fill="#191919"/>
<path d="M25.1672 9.38928L33.0055 8.53027C33.19 8.51057 33.3607 8.42423 33.4847 8.28781C33.6088 8.1514 33.6775 7.97452 33.6776 7.79111V6.42268C33.6773 6.36863 33.6648 6.31533 33.6411 6.26664C33.6173 6.21794 33.5829 6.17508 33.5404 6.14114C33.4978 6.1072 33.4481 6.08304 33.395 6.0704C33.3418 6.05777 33.2864 6.05698 33.2329 6.06808L29.3618 6.89214C28.4675 7.08175 27.6291 7.47128 26.9108 8.03084L25.1672 9.38928Z" fill="#191919"/>
<path d="M45.9075 41.5725H34.749C34.6353 41.5719 34.5226 41.5935 34.4175 41.6362C34.3123 41.6789 34.2168 41.7418 34.1364 41.8212C34.056 41.9006 33.9924 41.995 33.9492 42.0989C33.906 42.2029 33.8841 42.3142 33.8848 42.4266C33.8848 42.5387 33.9071 42.6498 33.9506 42.7534C33.994 42.857 34.0576 42.9511 34.1379 43.0304C34.2181 43.1097 34.3134 43.1726 34.4183 43.2156C34.5231 43.2585 34.6355 43.2806 34.749 43.2806H45.9075C46.1358 43.2792 46.3543 43.1887 46.5153 43.0287C46.6763 42.8687 46.7666 42.6522 46.7666 42.4266C46.7673 42.3146 46.7455 42.2037 46.7027 42.1001C46.6598 41.9965 46.5966 41.9023 46.5168 41.823C46.4369 41.7436 46.342 41.6806 46.2374 41.6376C46.1329 41.5946 46.0207 41.5725 45.9075 41.5725Z" fill="#50CAB3"/>
<path d="M7.84846 23.2034L10.8301 14.6582C10.8648 14.5588 10.8749 14.4527 10.8596 14.3487C10.8443 14.2447 10.8041 14.1458 10.7423 14.0602C10.6804 13.9747 10.5988 13.905 10.5042 13.857C10.4096 13.809 10.3048 13.784 10.1984 13.7842L10.0973 13.8391L3.59326 25.1262C4.42053 25.0432 5.24227 24.9131 6.0544 24.7366C6.46377 24.6603 6.84539 24.4782 7.16049 24.2089C7.47559 23.9396 7.71296 23.5927 7.84846 23.2034Z" fill="#191919"/>
<path d="M12.523 14.4885L9.698 24.0325L20.1894 22.5792C20.4344 22.544 20.6589 22.4246 20.8235 22.2418C20.988 22.0591 21.082 21.8249 21.089 21.5804V14.7582C21.0903 14.6216 21.0643 14.4861 21.0123 14.3595C20.9603 14.2329 20.8835 14.1177 20.7862 14.0207C20.6889 13.9236 20.5731 13.8466 20.4456 13.794C20.318 13.7414 20.1811 13.7143 20.0429 13.7144H13.554C13.3204 13.7154 13.0935 13.7915 12.9075 13.9311C12.7216 14.0707 12.5866 14.2664 12.523 14.4885Z" fill="#191919"/>
<path d="M28.4219 13.7244H24.3537C23.8039 13.7244 23.3582 14.1649 23.3582 14.7082V21.2358C23.3582 21.7791 23.8039 22.2196 24.3537 22.2196H28.4219C28.9718 22.2196 29.4175 21.7791 29.4175 21.2358V14.7082C29.4175 14.1649 28.9718 13.7244 28.4219 13.7244Z" stroke="#50CAB3" stroke-width="0.79" stroke-miterlimit="10"/>
<path d="M1.63737 41.0729L2.55209 40.6334V39.3599L0.722656 40.2389V44.9734L1.63737 44.5289V41.0729Z" fill="#F2EFFA"/>
<path d="M36.2703 44.8237H33.8799V45.9524H36.2703V44.8237Z" fill="#FFA538"/>
<path d="M46.7666 44.8237H44.3762V45.9524H46.7666V44.8237Z" fill="#FFA538"/>
<path d="M184.282 0H43.1028V36.2036H184.282V0Z" fill="#4EEED0"/>
<mask id="mask0_4_1103" style="mask-type:luminance" maskUnits="userSpaceOnUse" x="43" y="0" width="142" height="37">
<path d="M184.282 0.00488281H43.1028V36.2085H184.282V0.00488281Z" fill="white"/>
</mask>
<g mask="url(#mask0_4_1103)">
<path d="M-4.22485 50.642L49.5362 -6.11304" stroke="#50CAB3" stroke-width="0.79" stroke-miterlimit="10"/>
<path d="M0.207275 50.642L53.9734 -6.11304" stroke="#50CAB3" stroke-width="0.79" stroke-miterlimit="10"/>
<path d="M4.64429 50.642L58.4053 -6.11304" stroke="#50CAB3" stroke-width="0.79" stroke-miterlimit="10"/>
<path d="M9.07642 50.642L62.8425 -6.11304" stroke="#50CAB3" stroke-width="0.79" stroke-miterlimit="10"/>
<path d="M13.5137 50.642L67.2747 -6.11304" stroke="#50CAB3" stroke-width="0.79" stroke-miterlimit="10"/>
<path d="M17.9507 50.642L71.7117 -6.11304" stroke="#50CAB3" stroke-width="0.79" stroke-miterlimit="10"/>
<path d="M22.3828 50.642L76.1489 -6.11304" stroke="#50CAB3" stroke-width="0.79" stroke-miterlimit="10"/>
<path d="M26.8198 50.642L80.5809 -6.11304" stroke="#50CAB3" stroke-width="0.79" stroke-miterlimit="10"/>
<path d="M31.252 50.642L85.018 -6.11304" stroke="#50CAB3" stroke-width="0.79" stroke-miterlimit="10"/>
<path d="M35.6892 50.642L89.4502 -6.11304" stroke="#50CAB3" stroke-width="0.79" stroke-miterlimit="10"/>
<path d="M41.9202 50.642L95.6812 -6.11304" stroke="#50CAB3" stroke-width="0.79" stroke-miterlimit="10"/>
<path d="M48.1514 50.642L101.912 -6.11304" stroke="#50CAB3" stroke-width="0.79" stroke-miterlimit="10"/>
<path d="M54.3777 50.642L108.144 -6.11304" stroke="#50CAB3" stroke-width="0.79" stroke-miterlimit="10"/>
<path d="M60.6089 50.642L114.375 -6.11304" stroke="#50CAB3" stroke-width="0.79" stroke-miterlimit="10"/>
<path d="M66.8401 50.642L120.606 -6.11304" stroke="#50CAB3" stroke-width="0.79" stroke-miterlimit="10"/>
<path d="M73.071 50.642L126.837 -6.11304" stroke="#50CAB3" stroke-width="0.79" stroke-miterlimit="10"/>
<path d="M79.3022 50.642L133.068 -6.11304" stroke="#50CAB3" stroke-width="0.79" stroke-miterlimit="10"/>
<path d="M85.5334 50.642L139.3 -6.11304" stroke="#50CAB3" stroke-width="0.79" stroke-miterlimit="10"/>
<path d="M91.7646 50.642L145.531 -6.11304" stroke="#50CAB3" stroke-width="0.79" stroke-miterlimit="10"/>
<path d="M100.897 50.642L154.658 -6.11304" stroke="#50CAB3" stroke-width="0.79" stroke-miterlimit="10"/>
<path d="M110.024 50.642L163.79 -6.11304" stroke="#50CAB3" stroke-width="0.79" stroke-miterlimit="10"/>
<path d="M119.156 50.642L172.917 -6.11304" stroke="#50CAB3" stroke-width="0.79" stroke-miterlimit="10"/>
<path d="M128.282 50.642L182.049 -6.11304" stroke="#50CAB3" stroke-width="0.79" stroke-miterlimit="10"/>
<path d="M137.415 50.642L191.176 -6.11304" stroke="#50CAB3" stroke-width="0.79" stroke-miterlimit="10"/>
<path d="M146.542 50.642L200.308 -6.11304" stroke="#50CAB3" stroke-width="0.79" stroke-miterlimit="10"/>
<path d="M155.674 50.642L209.435 -6.11304" stroke="#50CAB3" stroke-width="0.79" stroke-miterlimit="10"/>
<path d="M164.801 50.642L218.567 -6.11304" stroke="#50CAB3" stroke-width="0.79" stroke-miterlimit="10"/>
<path d="M173.932 50.642L227.693 -6.11304" stroke="#50CAB3" stroke-width="0.79" stroke-miterlimit="10"/>
</g>
<path d="M38.9435 3.63574H43.0977V18.0842H38.9435C38.7882 18.0842 38.6345 18.054 38.491 17.9952C38.3475 17.9365 38.2172 17.8504 38.1073 17.7419C37.9975 17.6334 37.9104 17.5046 37.851 17.3628C37.7916 17.221 37.761 17.069 37.761 16.9155V4.8044C37.761 4.65093 37.7916 4.49896 37.851 4.35718C37.9104 4.21539 37.9975 4.08656 38.1073 3.97804C38.2172 3.86951 38.3475 3.78343 38.491 3.7247C38.6345 3.66597 38.7882 3.63574 38.9435 3.63574Z" fill="#E7E3F3"/>
<path d="M41.7687 6.22284C41.7677 5.96164 41.6882 5.70664 41.5403 5.49016C41.3924 5.27368 41.1828 5.10549 40.938 5.00692C40.6933 4.90835 40.4244 4.88384 40.1655 4.9365C39.9066 4.98917 39.6694 5.11663 39.484 5.30272C39.2985 5.48881 39.1731 5.72514 39.1238 5.98174C39.0745 6.23835 39.1033 6.50365 39.2068 6.74401C39.3103 6.98436 39.4836 7.18893 39.7049 7.33177C39.9262 7.47461 40.1854 7.54929 40.4497 7.54632C40.8018 7.54237 41.138 7.40103 41.3851 7.15311C41.6321 6.9052 41.77 6.5708 41.7687 6.22284Z" fill="#191919"/>
<path d="M41.7687 9.54399C41.7687 9.28259 41.69 9.02708 41.5427 8.80994C41.3955 8.59281 41.1862 8.42384 40.9415 8.3245C40.6968 8.22516 40.4278 8.19994 40.1686 8.25204C39.9094 8.30414 39.6717 8.43121 39.4857 8.61711C39.2998 8.803 39.1739 9.03933 39.1242 9.29607C39.0744 9.55282 39.103 9.81838 39.2063 10.059C39.3096 10.2997 39.483 10.5045 39.7044 10.6476C39.9258 10.7907 40.1852 10.8655 40.4497 10.8625C40.8005 10.8573 41.1352 10.7162 41.3818 10.4696C41.6285 10.2231 41.7674 9.8907 41.7687 9.54399Z" fill="#191919"/>
<path d="M0 52.5349H185" stroke="#191919" stroke-width="0.98" stroke-miterlimit="10"/>
</svg>
