<svg width="40" height="39" viewBox="0 0 40 39" fill="none" xmlns="http://www.w3.org/2000/svg">
<rect x="0.5" width="39" height="39" rx="19.5" fill="white"/>
<path d="M23.5 10.75V14.25M16.5 10.75V14.25" stroke="black" stroke-width="1.3125" stroke-linecap="round" stroke-linejoin="round"/>
<path d="M20.875 12.5H19.125C15.8252 12.5 14.1753 12.5 13.1501 13.5251C12.125 14.5503 12.125 16.2002 12.125 19.5V21.25C12.125 24.5498 12.125 26.1998 13.1501 27.2248C14.1753 28.25 15.8252 28.25 19.125 28.25H20.875C24.1748 28.25 25.8248 28.25 26.8498 27.2248C27.875 26.1998 27.875 24.5498 27.875 21.25V19.5C27.875 16.2002 27.875 14.5503 26.8498 13.5251C25.8248 12.5 24.1748 12.5 20.875 12.5Z" stroke="black" stroke-width="1.3125" stroke-linecap="round" stroke-linejoin="round"/>
<path d="M12.125 17.75H27.875" stroke="black" stroke-width="1.3125" stroke-linecap="round" stroke-linejoin="round"/>
<path d="M19.9961 21.25H20.0039M19.9961 24.75H20.0039M23.4921 21.25H23.5M16.5 21.25H16.5078M16.5 24.75H16.5078" stroke="black" stroke-width="1.75" stroke-linecap="round" stroke-linejoin="round"/>
</svg>
