<svg width="28" height="28" viewBox="0 0 28 28" fill="none" xmlns="http://www.w3.org/2000/svg">
<path d="M10.0625 16.8125H17.9375M14 20.75V12.875" stroke="#B0B0B0" stroke-width="1.2" stroke-linecap="round"/>
<path d="M8.375 7.25049C7.00178 7.25461 6.24181 7.28746 5.61732 7.54957C4.7426 7.91671 4.03026 8.5949 3.61412 9.45671C3.27445 10.1602 3.21887 11.0614 3.1077 12.8639L2.93351 15.6884C2.65706 20.1709 2.51883 22.4121 3.83415 23.8311C5.14945 25.2499 7.36534 25.2499 11.7972 25.2499H16.2029C20.6347 25.2499 22.8505 25.2499 24.1659 23.8311C25.4812 22.4121 25.3429 20.1709 25.0665 15.6884L24.8923 12.8639C24.7811 11.0614 24.7255 10.1602 24.3859 9.45671C23.9698 8.5949 23.2574 7.91671 22.3827 7.54957C21.7582 7.28746 20.9982 7.25461 19.625 7.25049" stroke="#B0B0B0" stroke-width="1.2" stroke-linecap="round"/>
<path d="M19.625 8.375L18.6285 5.88361C18.1985 4.8087 17.8243 3.58936 16.7187 3.04199C16.129 2.75 15.4193 2.75 14 2.75C12.5807 2.75 11.8711 2.75 11.2813 3.04199C10.1757 3.58936 9.80152 4.8087 9.37156 5.88361L8.375 8.375" stroke="#B0B0B0" stroke-width="1.2" stroke-linecap="round" stroke-linejoin="round"/>
<path d="M14 7.25H14.0119" stroke="#B0B0B0" stroke-width="1.5" stroke-linecap="round" stroke-linejoin="round"/>
</svg>
