<svg width="40" height="39" viewBox="0 0 40 39" fill="none" xmlns="http://www.w3.org/2000/svg">
<rect x="0.5" width="39" height="39" rx="19.5" fill="white"/>
<path d="M16.9375 18.625L17.8125 19.5M17.8125 19.5L18.6875 20.375M17.8125 19.5L18.6875 18.625M17.8125 19.5L16.9375 20.375" stroke="black" stroke-width="1.3125" stroke-linecap="round"/>
<path d="M12.5625 18.625L13.4375 19.5M13.4375 19.5L14.3125 20.375M13.4375 19.5L14.3125 18.625M13.4375 19.5L12.5625 20.375" stroke="black" stroke-width="1.3125" stroke-linecap="round"/>
<path d="M21.3125 18.625L22.1875 19.5M22.1875 19.5L23.0625 20.375M22.1875 19.5L23.0625 18.625M22.1875 19.5L21.3125 20.375" stroke="black" stroke-width="1.3125" stroke-linecap="round"/>
<path d="M25.6875 18.625L26.5625 19.5M26.5625 19.5L27.4375 20.375M26.5625 19.5L27.4375 18.625M26.5625 19.5L25.6875 20.375" stroke="black" stroke-width="1.3125" stroke-linecap="round"/>
<path d="M26.6795 23C25.2071 25.4529 22.7185 27.044 21.2302 27.8295C20.699 28.1098 20.4334 28.25 19.9999 28.25C19.5665 28.25 19.3009 28.1098 18.7697 27.8295C17.2814 27.044 14.7928 25.4529 13.3204 23M27.8748 16C27.8737 14.7269 27.8542 14.0653 27.5213 13.6246C27.1678 13.1565 26.3683 12.9292 24.7693 12.4747C23.6769 12.1642 22.7138 11.7901 21.9444 11.4485C20.8954 10.9828 20.3709 10.75 19.9999 10.75C19.6289 10.75 19.1045 10.9828 18.0554 11.4485C17.286 11.7901 16.323 12.1642 15.2306 12.4747C13.6316 12.9292 12.8321 13.1565 12.4785 13.6246C12.1457 14.0653 12.1261 14.7269 12.125 16" stroke="black" stroke-width="1.3125" stroke-linecap="round"/>
</svg>
