<svg width="15" height="16" viewBox="0 0 15 16" fill="none" xmlns="http://www.w3.org/2000/svg">
<path d="M6.7462 2.51V5.42C6.7462 5.66095 6.69862 5.89953 6.60619 6.12205C6.51375 6.34456 6.37828 6.54664 6.20756 6.71666C6.03683 6.88669 5.83421 7.02133 5.61132 7.11286C5.38842 7.20438 5.14965 7.25099 4.9087 7.25H2.0137C1.7734 7.25146 1.53528 7.20438 1.31362 7.11159C1.09195 7.0188 0.891303 6.88221 0.723701 6.71C0.553537 6.54125 0.418783 6.34022 0.327343 6.11871C0.235903 5.89719 0.189617 5.65964 0.191201 5.42V2.5175C0.191197 2.03345 0.38297 1.56912 0.724542 1.22614C1.06611 0.883162 1.52966 0.689484 2.0137 0.6875H4.9162C5.15625 0.687731 5.39387 0.735577 5.6153 0.828269C5.83673 0.920961 6.03757 1.05666 6.2062 1.2275C6.37682 1.39474 6.51244 1.59427 6.60515 1.81446C6.69786 2.03465 6.74581 2.27109 6.7462 2.51ZM14.8087 2.5175V5.42C14.8048 5.90285 14.6118 6.36493 14.271 6.70707C13.9303 7.0492 13.469 7.24413 12.9862 7.25H10.0762C9.5911 7.24703 9.12603 7.05616 8.7787 6.7175C8.60898 6.54687 8.47459 6.34443 8.38322 6.12179C8.29184 5.89914 8.24528 5.66066 8.2462 5.42V2.5175C8.2456 2.27733 8.29306 2.03946 8.3858 1.81791C8.47854 1.59637 8.61468 1.39562 8.7862 1.2275C8.95483 1.05666 9.15567 0.920961 9.3771 0.828269C9.59853 0.735577 9.83615 0.687731 10.0762 0.6875H12.9787C13.4628 0.69142 13.926 0.885482 14.2684 1.22783C14.6107 1.57017 14.8048 2.03337 14.8087 2.5175ZM14.8087 10.58V13.4825C14.8048 13.9653 14.6118 14.4274 14.271 14.7696C13.9303 15.1117 13.469 15.3066 12.9862 15.3125H10.0762C9.58801 15.3175 9.11714 15.1318 8.7637 14.795C8.59331 14.6249 8.45848 14.4225 8.36706 14.1998C8.27564 13.977 8.22946 13.7383 8.2312 13.4975V10.595C8.2306 10.3548 8.27806 10.117 8.3708 9.89541C8.46354 9.67387 8.59968 9.47312 8.7712 9.305C8.93983 9.13416 9.14067 8.99846 9.3621 8.90577C9.58354 8.81308 9.82115 8.76523 10.0612 8.765H12.9637C13.4478 8.76892 13.911 8.96298 14.2534 9.30533C14.5957 9.64767 14.7898 10.1109 14.7937 10.595L14.8087 10.58ZM6.7462 10.5875V13.49C6.7403 13.9741 6.54434 14.4365 6.20059 14.7775C5.85684 15.1184 5.39285 15.3106 4.9087 15.3125H2.0137C1.77409 15.3135 1.53665 15.267 1.31509 15.1758C1.09352 15.0846 0.89222 14.9503 0.722787 14.7809C0.553354 14.6115 0.419148 14.4102 0.32791 14.1886C0.236672 13.967 0.190209 13.7296 0.191201 13.49V10.5875C0.193134 10.1033 0.385296 9.63936 0.726239 9.29561C1.06718 8.95186 1.52958 8.7559 2.0137 8.75H4.9162C5.40235 8.75498 5.86757 8.94859 6.2137 9.29C6.55577 9.63508 6.74723 10.1016 6.7462 10.5875Z" fill="white"/>
</svg>
