<svg width="40" height="39" viewBox="0 0 40 39" fill="none" xmlns="http://www.w3.org/2000/svg">
<rect x="0.5" width="39" height="39" rx="19.5" fill="white"/>
<path d="M15.625 16.4375L18.1993 17.9595C19.7001 18.8468 20.2999 18.8468 21.8007 17.9595L24.375 16.4375" stroke="black" stroke-width="1.3125" stroke-linecap="round" stroke-linejoin="round"/>
<path d="M11.2638 20.7912C11.321 23.4735 11.3496 24.8147 12.3393 25.8082C13.3291 26.8017 14.7065 26.8363 17.4615 26.9055C19.1594 26.9482 20.8406 26.9482 22.5386 26.9055C25.2935 26.8363 26.6709 26.8017 27.6606 25.8082C28.6504 24.8147 28.679 23.4735 28.7362 20.7912C28.7546 19.9287 28.7546 19.0713 28.7362 18.2089C28.679 15.5265 28.6504 14.1853 27.6606 13.1918C26.6709 12.1983 25.2935 12.1637 22.5386 12.0945C20.8406 12.0518 19.1594 12.0518 17.4615 12.0945C14.7065 12.1637 13.3291 12.1983 12.3393 13.1918C11.3496 14.1853 11.321 15.5265 11.2638 18.2088C11.2454 19.0713 11.2454 19.9287 11.2638 20.7912Z" stroke="black" stroke-width="1.3125" stroke-linejoin="round"/>
</svg>
