<svg width="110" height="109" viewBox="0 0 110 109" fill="none" xmlns="http://www.w3.org/2000/svg">
<rect x="0.5" width="109" height="109" rx="54.5" fill="white"/>
<rect x="1" y="0.5" width="108" height="108" rx="54" stroke="black" stroke-opacity="0.07"/>
<path d="M37.5 64.1685V44.8315H41.1487L46.9757 57.6215L52.6937 44.8315H56.3696V64.1685H53.2655V50.4392L48.1465 61.5994H45.7231L40.6041 50.4392V64.1685H37.5Z" fill="#11131A"/>
<path d="M65.8834 64.5C64.5764 64.5 63.3874 64.2698 62.3164 63.8094C61.2454 63.3306 60.3922 62.64 59.7569 61.7376C59.1397 60.8168 58.822 59.6842 58.8039 58.3398H62.0441C62.0623 59.3711 62.4162 60.2182 63.106 60.8812C63.7958 61.5258 64.7125 61.8481 65.8561 61.8481C66.8727 61.8481 67.6896 61.6087 68.3067 61.1298C68.9239 60.651 69.2325 59.9788 69.2325 59.1133C69.2325 58.616 69.1508 58.2017 68.9875 57.8702C68.8241 57.5203 68.5518 57.2164 68.1706 56.9586C67.7894 56.6823 67.2811 56.4245 66.6458 56.1851C66.0104 55.9273 65.2027 55.6326 64.2224 55.3011C63.0788 54.9144 62.1439 54.4724 61.4178 53.9751C60.6917 53.4595 60.1562 52.8702 59.8113 52.2072C59.4846 51.5258 59.3212 50.7707 59.3212 49.942C59.3212 48.7634 59.5935 47.7689 60.1381 46.9586C60.7008 46.1482 61.4541 45.5405 62.3981 45.1354C63.3602 44.7118 64.4221 44.5 65.5839 44.5C66.7638 44.5 67.8257 44.7118 68.7696 45.1354C69.7136 45.5589 70.476 46.1851 71.0569 47.0138C71.6378 47.8241 71.9373 48.8186 71.9554 49.9972H68.6607C68.6607 49.2053 68.3703 48.5331 67.7894 47.9807C67.2085 47.4282 66.437 47.1519 65.4749 47.1519C64.6581 47.1335 63.9592 47.3453 63.3783 47.7873C62.8156 48.2293 62.5342 48.8738 62.5342 49.721C62.5342 50.3103 62.7157 50.7983 63.0788 51.1851C63.46 51.5718 63.9955 51.9125 64.6853 52.2072C65.3751 52.5018 66.2101 52.8241 67.1904 53.174C67.7894 53.3766 68.3975 53.616 69.0147 53.8923C69.65 54.1685 70.2218 54.5276 70.7301 54.9696C71.2565 55.3932 71.6831 55.9273 72.0099 56.5718C72.3366 57.198 72.5 57.9807 72.5 58.9199C72.5 60.0801 72.2005 61.0838 71.6014 61.9309C71.0206 62.7597 70.2309 63.395 69.2325 63.837C68.2341 64.279 67.1178 64.5 65.8834 64.5Z" fill="#11131A"/>
<path d="M85.5 96C85.5 89.3726 90.8726 84 97.5 84C104.127 84 109.5 89.3726 109.5 96C109.5 102.627 104.127 108 97.5 108C90.8726 108 85.5 102.627 85.5 96Z" fill="#4EEED0"/>
<path d="M99.0192 92.1472L99.6817 91.4244C100.048 91.0252 100.641 91.0252 101.007 91.4244C101.373 91.8236 101.373 92.4708 101.007 92.87L100.344 93.5927M99.0192 92.1472L95.1274 96.3928C94.6333 96.9318 94.3863 97.2012 94.2181 97.5296C94.0498 97.858 93.8806 98.6335 93.7188 99.375C94.3985 99.1985 95.1093 99.0138 95.4103 98.8303C95.7114 98.6468 95.9584 98.3773 96.4525 97.8383L100.344 93.5927M99.0192 92.1472L100.344 93.5927L99.0192 92.1472Z" fill="#111B19"/>
<path d="M99.0192 92.1472L99.6817 91.4244C100.048 91.0252 100.641 91.0252 101.007 91.4244C101.373 91.8236 101.373 92.4708 101.007 92.87L100.344 93.5927M99.0192 92.1472L95.1274 96.3928C94.6333 96.9318 94.3863 97.2012 94.2181 97.5296C94.0498 97.858 93.8806 98.6335 93.7188 99.375C94.3985 99.1985 95.1093 99.0138 95.4103 98.8303C95.7114 98.6468 95.9584 98.3773 96.4525 97.8383L100.344 93.5927M99.0192 92.1472L100.344 93.5927" stroke="#111B19" stroke-linecap="round" stroke-linejoin="round"/>
<path d="M97.7363 100.148H100.572H97.7363Z" fill="#111B19"/>
<path d="M97.7363 100.148H100.572" stroke="#111B19" stroke-width="1.2" stroke-linecap="round"/>
</svg>
