<svg width="40" height="39" viewBox="0 0 40 39" fill="none" xmlns="http://www.w3.org/2000/svg">
<rect x="0.5" width="39" height="39" rx="19.5" fill="white"/>
<path d="M23.5 19.5H20V14.25" stroke="black" stroke-width="1.3125" stroke-linecap="round" stroke-linejoin="round"/>
<path d="M28.75 19.5C28.75 24.3324 24.8324 28.25 20 28.25C15.1675 28.25 11.25 24.3324 11.25 19.5C11.25 14.6675 15.1675 10.75 20 10.75" stroke="black" stroke-width="1.3125" stroke-linecap="round" stroke-linejoin="round"/>
<path d="M25.9916 12.6491C26.144 12.7837 26.2922 12.9231 26.4361 13.067C26.5799 13.2109 26.7192 13.3593 26.8537 13.5118M22.625 10.75C23.0468 10.8747 23.4605 11.0355 23.8617 11.2283M28.2578 15.6102C28.4566 16.0202 28.6222 16.4433 28.75 16.875" stroke="black" stroke-width="1.3125" stroke-linecap="round" stroke-linejoin="round"/>
</svg>
