<svg width="17" height="18" viewBox="0 0 17 18" fill="none" xmlns="http://www.w3.org/2000/svg">
<path d="M15.9383 9.16507C15.9383 8.55355 15.8877 8.1073 15.7781 7.64453H8.65259V10.4046H12.8351C12.7508 11.0906 12.2954 12.1236 11.2835 12.8177L11.2693 12.9101L13.5223 14.6205L13.6784 14.6358C15.1119 13.3383 15.9383 11.4294 15.9383 9.16507Z" fill="#4285F4"/>
<path d="M8.65207 16.4375C10.7011 16.4375 12.4214 15.7764 13.6778 14.636L11.283 12.8179C10.6421 13.2559 9.782 13.5616 8.65207 13.5616C6.64514 13.5616 4.94179 12.2642 4.33459 10.4709L4.24559 10.4784L1.90295 12.2551L1.87231 12.3386C3.12031 14.7682 5.6838 16.4375 8.65207 16.4375Z" fill="#34A853"/>
<path d="M4.33502 10.471C4.17481 10.0083 4.08209 9.5124 4.08209 9.00006C4.08209 8.48767 4.17481 7.99186 4.32659 7.52908L4.32235 7.43053L1.95034 5.62524L1.87274 5.66142C1.35837 6.66963 1.06323 7.8018 1.06323 9.00006C1.06323 10.1983 1.35837 11.3304 1.87274 12.3386L4.33502 10.471Z" fill="#FBBC05"/>
<path d="M8.65211 4.43831C10.0772 4.43831 11.0385 5.04157 11.5866 5.54571L13.7285 3.49625C12.413 2.29799 10.7012 1.5625 8.65211 1.5625C5.68382 1.5625 3.12032 3.23179 1.87231 5.66136L4.32618 7.52902C4.94181 5.73576 6.64517 4.43831 8.65211 4.43831Z" fill="#EB4335"/>
</svg>
