<svg width="20" height="20" viewBox="0 0 20 20" fill="none" xmlns="http://www.w3.org/2000/svg">
<path fill-rule="evenodd" clip-rule="evenodd" d="M4.16663 16.6666C3.50358 16.6666 2.8677 16.4032 2.39886 15.9344C1.93002 15.4655 1.66663 14.8296 1.66663 14.1666V5.83325C1.66663 5.17021 1.93002 4.53433 2.39886 4.06549C2.8677 3.59664 3.50358 3.33325 4.16663 3.33325H15.8333C16.4963 3.33325 17.1322 3.59664 17.6011 4.06549C18.0699 4.53433 18.3333 5.17021 18.3333 5.83325V14.1666C18.3333 14.8296 18.0699 15.4655 17.6011 15.9344C17.1322 16.4032 16.4963 16.6666 15.8333 16.6666H4.16663ZM6.35413 6.84992C6.26924 6.77743 6.17065 6.72274 6.06422 6.68909C5.95779 6.65543 5.84568 6.64351 5.73455 6.65401C5.62342 6.66452 5.51554 6.69725 5.4173 6.75025C5.31906 6.80325 5.23247 6.87545 5.16267 6.96256C5.09287 7.04967 5.04128 7.14992 5.01097 7.25735C4.98066 7.36478 4.97223 7.4772 4.98621 7.58795C5.00018 7.6987 5.03626 7.80551 5.0923 7.90204C5.14834 7.99858 5.22321 8.08287 5.31246 8.14992L8.43746 10.6508C8.88086 11.0058 9.43195 11.1992 9.99996 11.1992C10.568 11.1992 11.1191 11.0058 11.5625 10.6508L14.6875 8.15075C14.7729 8.08236 14.8441 7.99779 14.8969 7.9019C14.9497 7.806 14.983 7.70064 14.9951 7.59184C15.0072 7.48304 14.9977 7.37293 14.9672 7.26779C14.9367 7.16266 14.8859 7.06455 14.8175 6.97909C14.7491 6.89362 14.6645 6.82246 14.5686 6.76967C14.4727 6.71688 14.3673 6.6835 14.2586 6.67143C14.1498 6.65935 14.0396 6.66883 13.9345 6.69931C13.8294 6.7298 13.7313 6.78069 13.6458 6.84909L10.5208 9.34908C10.373 9.46742 10.1893 9.5319 9.99996 9.5319C9.81062 9.5319 9.62693 9.46742 9.47913 9.34908L6.35413 6.84992Z" fill="#AEAEAE"/>
</svg>
