<svg width="40" height="39" viewBox="0 0 40 39" fill="none" xmlns="http://www.w3.org/2000/svg">
<rect x="0.5" width="39" height="39" rx="19.5" fill="white"/>
<path d="M23.0625 24.75C23.0625 26.4414 21.6914 27.8125 20 27.8125C18.3086 27.8125 16.9375 26.4414 16.9375 24.75" stroke="black" stroke-width="1.3125" stroke-linecap="round" stroke-linejoin="round"/>
<path d="M26.3272 24.75H13.6728C12.818 24.75 12.125 24.057 12.125 23.2022C12.125 22.7918 12.2881 22.3981 12.5783 22.1078L13.1062 21.58C13.5984 21.0877 13.875 20.42 13.875 19.7238V17.3125C13.875 13.9298 16.6173 11.1875 20 11.1875C23.3827 11.1875 26.125 13.9298 26.125 17.3125V19.7238C26.125 20.42 26.4016 21.0877 26.8939 21.58L27.4217 22.1078C27.7119 22.3981 27.875 22.7918 27.875 23.2022C27.875 24.057 27.182 24.75 26.3272 24.75Z" stroke="black" stroke-width="1.3125" stroke-linecap="round" stroke-linejoin="round"/>
</svg>
