<svg width="18" height="20" viewBox="0 0 18 20" fill="none" xmlns="http://www.w3.org/2000/svg">
<path d="M5.72619 17.5446C6.11671 18.0483 6.61433 18.4549 7.18148 18.7337C7.74862 19.0125 8.37046 19.1561 9.00002 19.1539C9.62958 19.1561 10.2514 19.0125 10.8186 18.7337C11.3857 18.4549 11.8833 18.0483 12.2738 17.5446C10.1012 17.8445 7.89884 17.8445 5.72619 17.5446ZM15.0577 7.25387V7.8983C15.0577 8.6718 15.2731 9.42791 15.6787 10.0714L16.673 11.6486C17.5803 13.0894 16.8875 15.0474 15.309 15.5024C11.1841 16.6939 6.81593 16.6939 2.69109 15.5024C1.11251 15.0474 0.419693 13.0894 1.32699 11.6486L2.32135 10.0714C2.72807 9.4226 2.94391 8.66843 2.94327 7.8983V7.25387C2.94327 3.715 5.6553 0.846191 9.00002 0.846191C12.3447 0.846191 15.0577 3.715 15.0577 7.25387Z" fill="white"/>
</svg>
