<svg width="18" height="18" viewBox="0 0 18 18" fill="none" xmlns="http://www.w3.org/2000/svg">
<g clip-path="url(#clip0_253_24)">
<path d="M4.5 6C4.91421 6 5.25 5.66421 5.25 5.25C5.25 4.83579 4.91421 4.5 4.5 4.5C4.08579 4.5 3.75 4.83579 3.75 5.25C3.75 5.66421 4.08579 6 4.5 6Z" fill="white"/>
<path d="M17.2499 4.50001H8.93242C8.74437 3.38746 8.14522 2.38616 7.25372 1.69453C6.36222 1.00289 5.24342 0.671413 4.11904 0.765771C2.99467 0.860129 1.94676 1.37344 1.183 2.20398C0.419242 3.03452 -0.00463867 4.12168 -0.00463867 5.25001C-0.00463867 6.37834 0.419242 7.4655 1.183 8.29604C1.94676 9.12658 2.99467 9.63989 4.11904 9.73425C5.24342 9.8286 6.36222 9.49712 7.25372 8.80549C8.14522 8.11386 8.74437 7.11256 8.93242 6.00001H17.2499C17.4488 6.00001 17.6396 5.92099 17.7803 5.78034C17.9209 5.63969 17.9999 5.44892 17.9999 5.25001C17.9999 5.0511 17.9209 4.86033 17.7803 4.71968C17.6396 4.57903 17.4488 4.50001 17.2499 4.50001ZM4.49992 7.50001C4.05491 7.50001 3.6199 7.36805 3.24989 7.12082C2.87988 6.87358 2.59149 6.52218 2.42119 6.11105C2.2509 5.69991 2.20634 5.24751 2.29315 4.81106C2.37997 4.3746 2.59426 3.97369 2.90893 3.65902C3.2236 3.34435 3.62451 3.13006 4.06097 3.04324C4.49743 2.95643 4.94983 3.00098 5.36096 3.17128C5.77209 3.34158 6.12349 3.62997 6.37073 3.99998C6.61796 4.36999 6.74992 4.805 6.74992 5.25001C6.74927 5.84654 6.512 6.41846 6.09019 6.84028C5.66837 7.26209 5.09646 7.49935 4.49992 7.50001Z" fill="white"/>
<path d="M13.5 13.5C13.9142 13.5 14.25 13.1642 14.25 12.75C14.25 12.3358 13.9142 12 13.5 12C13.0858 12 12.75 12.3358 12.75 12.75C12.75 13.1642 13.0858 13.5 13.5 13.5Z" fill="white"/>
<path d="M13.5 8.25C12.4376 8.25209 11.4102 8.62956 10.5991 9.31574C9.78804 10.0019 9.24556 10.9526 9.0675 12H0.75C0.551088 12 0.360322 12.079 0.21967 12.2197C0.0790176 12.3603 0 12.5511 0 12.75C0 12.9489 0.0790176 13.1397 0.21967 13.2803C0.360322 13.421 0.551088 13.5 0.75 13.5H9.0675C9.21089 14.3455 9.59298 15.1323 10.1687 15.7678C10.7445 16.4033 11.4899 16.861 12.3172 17.0869C13.1444 17.3128 14.019 17.2975 14.8378 17.0429C15.6567 16.7882 16.3857 16.3048 16.9389 15.6495C17.4921 14.9943 17.8464 14.1946 17.9602 13.3446C18.074 12.4947 17.9424 11.6299 17.581 10.8523C17.2196 10.0746 16.6434 9.41646 15.9204 8.95541C15.1973 8.49436 14.3575 8.24961 13.5 8.25ZM13.5 15C13.055 15 12.62 14.868 12.25 14.6208C11.88 14.3736 11.5916 14.0222 11.4213 13.611C11.251 13.1999 11.2064 12.7475 11.2932 12.311C11.38 11.8746 11.5943 11.4737 11.909 11.159C12.2237 10.8443 12.6246 10.6301 13.061 10.5432C13.4975 10.4564 13.9499 10.501 14.361 10.6713C14.7722 10.8416 15.1236 11.13 15.3708 11.5C15.618 11.87 15.75 12.305 15.75 12.75C15.7493 13.3465 15.5121 13.9185 15.0903 14.3403C14.6685 14.7621 14.0965 14.9993 13.5 15Z" fill="white"/>
</g>
<defs>
<clipPath id="clip0_253_24">
<rect width="18" height="18" fill="white"/>
</clipPath>
</defs>
</svg>
