<svg width="72" height="57" viewBox="0 0 72 57" fill="none" xmlns="http://www.w3.org/2000/svg">
<path fill-rule="evenodd" clip-rule="evenodd" d="M72 28.5C72 31.4387 69.6177 33.821 66.679 33.821H47.2728C45.1086 33.821 43.1601 32.5102 42.3443 30.5057C40.9201 27.0064 43.4947 23.1789 47.2728 23.1789H66.679C69.6177 23.1789 72 25.5612 72 28.5Z" fill="#4EEED0"/>
<path fill-rule="evenodd" clip-rule="evenodd" d="M5.00579 57C1.57336 57 -0.838423 53.6207 0.277344 50.3746L16.682 2.64963C18.2312 -1.85734 24.6088 -1.84743 26.144 2.66434L42.3827 50.3893C43.4863 53.6326 41.0751 57 37.6492 57H5.00579Z" fill="#4EEED0"/>
<path fill-rule="evenodd" clip-rule="evenodd" d="M72 5.3212C72 8.26004 69.6176 10.6424 66.6788 10.6424H40.0824C37.9181 10.6424 35.9695 9.33162 35.1537 7.327C33.7295 3.82748 36.3042 -4.29153e-05 40.0824 -4.29153e-05H66.6788C69.6176 -4.29153e-05 72 2.38236 72 5.3212Z" fill="#4EEED0"/>
<path fill-rule="evenodd" clip-rule="evenodd" d="M72 51.6789C72 54.6177 69.6177 57 66.679 57H56.7062C54.5421 57 52.5935 55.6892 51.7778 53.6847C50.3536 50.1854 52.9282 46.3579 56.7062 46.3579H66.679C69.6177 46.3579 72 48.7402 72 51.6789Z" fill="#4EEED0"/>
</svg>
