<svg width="20" height="20" viewBox="0 0 20 20" fill="none" xmlns="http://www.w3.org/2000/svg">
<path d="M10 1.66675C11.1051 1.66675 12.1649 2.10573 12.9463 2.88714C13.7277 3.66854 14.1667 4.72835 14.1667 5.83341V8.33341C14.8297 8.33341 15.4656 8.59681 15.9345 9.06565C16.4033 9.53449 16.6667 10.1704 16.6667 10.8334V15.8334C16.6667 16.4965 16.4033 17.1323 15.9345 17.6012C15.4656 18.07 14.8297 18.3334 14.1667 18.3334H5.83337C5.17033 18.3334 4.53445 18.07 4.06561 17.6012C3.59677 17.1323 3.33337 16.4965 3.33337 15.8334V10.8334C3.33337 10.1704 3.59677 9.53449 4.06561 9.06565C4.53445 8.59681 5.17033 8.33341 5.83337 8.33341V5.83341C5.83337 4.72835 6.27236 3.66854 7.05376 2.88714C7.83516 2.10573 8.89497 1.66675 10 1.66675ZM10 11.6667C9.57956 11.6666 9.17457 11.8254 8.86625 12.1113C8.55793 12.3972 8.36908 12.7891 8.33754 13.2084L8.33337 13.3334C8.33337 13.663 8.43112 13.9853 8.61426 14.2594C8.79739 14.5334 9.05769 14.7471 9.36224 14.8732C9.66678 14.9994 10.0019 15.0324 10.3252 14.9681C10.6485 14.9037 10.9455 14.745 11.1786 14.5119C11.4116 14.2788 11.5704 13.9819 11.6347 13.6586C11.699 13.3353 11.666 13.0002 11.5398 12.6956C11.4137 12.3911 11.2001 12.1308 10.926 11.9476C10.6519 11.7645 10.3297 11.6667 10 11.6667ZM10 3.33341C9.337 3.33341 8.70111 3.59681 8.23227 4.06565C7.76343 4.53449 7.50004 5.17037 7.50004 5.83341V8.33341H12.5V5.83341C12.5 5.17037 12.2366 4.53449 11.7678 4.06565C11.299 3.59681 10.6631 3.33341 10 3.33341Z" fill="#AEAEAE"/>
</svg>
