<svg width="18" height="18" viewBox="0 0 18 18" fill="none" xmlns="http://www.w3.org/2000/svg">
<path d="M14.6087 1.28933C14.6094 1.28812 14.6109 1.28686 14.6115 1.28564H2.52424C1.81064 1.28564 1.23853 1.85779 1.23853 2.57136V15.4285C1.23853 16.1356 1.81064 16.7142 2.52424 16.7142H12.3856C13.0928 16.7142 13.6714 16.1356 13.6714 15.4285V7.9516H16.1186C16.4739 7.9516 16.7614 7.66376 16.7614 7.30874V3.47389C16.7614 2.27951 15.7985 1.30899 14.6087 1.28933ZM11.1256 13.1849H3.77778C3.42421 13.1849 3.13492 12.8956 3.13492 12.5421C3.13492 12.1885 3.42421 11.8992 3.77778 11.8992H11.1256C11.4792 11.8992 11.7685 12.1885 11.7685 12.5421C11.7685 12.8956 11.4792 13.1849 11.1256 13.1849ZM11.1256 9.76493H3.77778C3.42421 9.76493 3.13492 9.47564 3.13492 9.12207C3.13492 8.76851 3.42421 8.47922 3.77778 8.47922H11.1256C11.4792 8.47922 11.7685 8.76851 11.7685 9.12207C11.7685 9.47564 11.4792 9.76493 11.1256 9.76493ZM11.1256 6.10064H3.77778C3.42421 6.10064 3.13492 5.81135 3.13492 5.45778C3.13492 5.09778 3.42421 4.81492 3.77778 4.81492H11.1256C11.4856 4.81492 11.7685 5.09778 11.7685 5.45778C11.7685 5.81135 11.4856 6.10064 11.1256 6.10064ZM15.4757 6.66588H13.6714V3.46223C13.6778 2.97016 14.0791 2.57144 14.5729 2.57144C15.0708 2.57144 15.4757 2.97636 15.4757 3.47389C15.4757 3.47389 15.4757 6.66588 15.4757 6.66588Z" fill="white"/>
</svg>
