<svg width="18" height="14" viewBox="0 0 18 14" fill="none" xmlns="http://www.w3.org/2000/svg">
<path d="M16.5231 6.15629L14.9211 3.49904C14.8038 3.30609 14.639 3.14644 14.4425 3.03535C14.2459 2.92426 14.0241 2.86545 13.7983 2.86454H12.5406V2.67779C12.5406 2.4081 12.4873 2.14106 12.3839 1.89201C12.2804 1.64296 12.1287 1.41681 11.9376 1.22654C11.5512 0.841535 11.028 0.625259 10.4826 0.625045H2.99533C2.58783 0.622348 2.18879 0.741312 1.84928 0.966711C1.50978 1.19211 1.24526 1.51369 1.08958 1.89029C0.986574 2.13996 0.934554 2.40772 0.93658 2.67779V9.39629C0.937003 9.71183 1.05174 10.0165 1.25954 10.254C1.46734 10.4914 1.75414 10.6455 2.06683 10.6878C2.06333 10.7553 2.06333 10.8225 2.06683 10.8895C2.06416 11.2076 2.12577 11.523 2.24794 11.8167C2.37012 12.1104 2.55035 12.3764 2.77783 12.5988C3.00105 12.8311 3.26825 13.0168 3.56388 13.1449C3.85951 13.273 4.17766 13.341 4.49983 13.345C5.14284 13.3392 5.758 13.0818 6.21358 12.628C6.66875 12.175 6.92738 11.561 6.93358 10.9188C6.93743 10.8569 6.93743 10.7947 6.93358 10.7328H11.0653C11.0615 10.7947 11.0615 10.8569 11.0653 10.9188C11.0626 11.237 11.1241 11.5525 11.2463 11.8464C11.3685 12.1402 11.5488 12.4063 11.7763 12.6288C11.9997 12.8613 12.2672 13.047 12.5631 13.1752C12.859 13.3033 13.1774 13.3712 13.4998 13.375C14.1428 13.3692 14.758 13.1118 15.2136 12.658C15.6685 12.2048 15.9268 11.5909 15.9328 10.9488C15.9367 10.8866 15.9367 10.8242 15.9328 10.762H16.4998C16.6478 10.7599 16.7891 10.7004 16.8939 10.596C16.9987 10.4916 17.0589 10.3505 17.0616 10.2025V8.04555C17.0616 7.37805 16.8748 6.72404 16.5231 6.15629ZM5.80258 10.8888C5.8028 11.0602 5.76845 11.23 5.70156 11.3878C5.63468 11.5457 5.53665 11.6884 5.41333 11.8075C5.16382 12.0446 4.83277 12.1768 4.48858 12.1768C4.14439 12.1768 3.81334 12.0446 3.56383 11.8075C3.44221 11.6862 3.3459 11.5419 3.2805 11.383C3.2151 11.2241 3.1819 11.0539 3.18283 10.882C3.17931 10.7046 3.21517 10.5287 3.28783 10.3668C3.38683 10.132 3.55708 9.93405 3.77383 9.79905C3.99552 9.65252 4.25666 9.57716 4.52233 9.58305C4.77583 9.58305 5.02333 9.65805 5.23333 9.79905C5.44858 9.9363 5.61808 10.1335 5.72083 10.3668C5.79433 10.528 5.83333 10.7043 5.83258 10.882L5.80258 10.8888ZM8.23558 7.15679H4.49308C4.29495 7.1566 4.10494 7.07801 3.96456 6.93819C3.82417 6.79837 3.74482 6.60868 3.74383 6.41054C3.74363 6.31226 3.76287 6.21492 3.80043 6.1241C3.838 6.03328 3.89315 5.95079 3.96271 5.88136C4.03227 5.81194 4.11488 5.75695 4.20577 5.71957C4.29666 5.68219 4.39405 5.66315 4.49233 5.66355H8.23558C8.43371 5.66394 8.62364 5.74272 8.76388 5.88268C8.90413 6.02264 8.98329 6.21241 8.98408 6.41054C8.98418 6.50876 8.96487 6.60603 8.92726 6.69676C8.88965 6.78749 8.83449 6.8699 8.76493 6.93924C8.69538 7.00859 8.61281 7.0635 8.52197 7.10084C8.43112 7.13817 8.3338 7.15719 8.23558 7.15679ZM8.23558 4.58879H4.49308C4.29495 4.5886 4.10494 4.51001 3.96456 4.37019C3.82417 4.23037 3.74482 4.04068 3.74383 3.84254C3.74373 3.74433 3.76304 3.64706 3.80065 3.55633C3.83826 3.4656 3.89342 3.38319 3.96298 3.31385C4.03253 3.2445 4.1151 3.18959 4.20595 3.15225C4.29679 3.11492 4.39411 3.0959 4.49233 3.09629H8.23558C8.43358 3.09669 8.6234 3.17537 8.76362 3.31517C8.90384 3.45497 8.98309 3.64454 8.98408 3.84254C8.98418 3.94076 8.96487 4.03803 8.92726 4.12876C8.88965 4.21949 8.83449 4.3019 8.76493 4.37124C8.69538 4.44059 8.61281 4.4955 8.52197 4.53284C8.43112 4.57017 8.3338 4.58919 8.23558 4.58879ZM14.7861 10.8888C14.7862 11.0603 14.7517 11.2301 14.6847 11.3879C14.6177 11.5458 14.5195 11.6885 14.3961 11.8075C14.1466 12.0444 13.8157 12.1765 13.4717 12.1765C13.1277 12.1765 12.7968 12.0444 12.5473 11.8075C12.4256 11.6862 12.3291 11.542 12.2636 11.3831C12.1981 11.2242 12.1647 11.0539 12.1656 10.882C12.1624 10.6101 12.2494 10.3448 12.4131 10.1275C12.5976 9.88229 12.8623 9.70754 13.1616 9.63479H13.3491C13.3834 9.62663 13.4191 9.62663 13.4533 9.63479H13.6033C13.8306 9.66105 14.0473 9.7458 14.2318 9.88155C14.4171 10.0173 14.5618 10.2003 14.6511 10.4118C14.7253 10.573 14.7636 10.7493 14.7636 10.9263L14.7861 10.8888Z" fill="white"/>
</svg>
