<svg width="40" height="39" viewBox="0 0 40 39" fill="none" xmlns="http://www.w3.org/2000/svg">
<rect x="0.5" width="39" height="39" rx="19.5" fill="white"/>
<path d="M28.7771 18.5157L26.9081 15.4156C26.7713 15.1904 26.579 15.0042 26.3497 14.8746C26.1204 14.745 25.8616 14.6764 25.5982 14.6753H24.1308V14.4574C24.1309 14.1428 24.0687 13.8312 23.948 13.5407C23.8273 13.2501 23.6503 12.9863 23.4273 12.7643C22.9766 12.3151 22.3662 12.0628 21.7298 12.0626H12.9947C12.5193 12.0594 12.0537 12.1982 11.6577 12.4612C11.2616 12.7241 10.953 13.0993 10.7713 13.5387C10.6512 13.83 10.5905 14.1423 10.5928 14.4574V22.2957C10.5933 22.6638 10.7272 23.0193 10.9696 23.2963C11.2121 23.5733 11.5467 23.7531 11.9115 23.8024C11.9074 23.8812 11.9074 23.9596 11.9115 24.0378C11.9084 24.4089 11.9802 24.7768 12.1228 25.1195C12.2653 25.4622 12.4756 25.7725 12.741 26.0319C13.0014 26.303 13.3131 26.5195 13.658 26.669C14.0029 26.8185 14.3741 26.8979 14.75 26.9026C15.5001 26.8957 16.2178 26.5955 16.7493 26.0661C17.2804 25.5375 17.5821 24.8212 17.5893 24.0719C17.5938 23.9997 17.5938 23.9272 17.5893 23.8549H22.4097C22.4052 23.9272 22.4052 23.9997 22.4097 24.0719C22.4065 24.4432 22.4783 24.8113 22.6208 25.1541C22.7634 25.4969 22.9737 25.8074 23.2392 26.0669C23.4998 26.3382 23.8119 26.5549 24.1571 26.7044C24.5023 26.8538 24.8738 26.9331 25.25 26.9376C26.0001 26.9307 26.7178 26.6305 27.2493 26.1011C27.7801 25.5723 28.0815 24.856 28.0885 24.1069C28.093 24.0344 28.093 23.9616 28.0885 23.8891H28.75C28.9226 23.8866 29.0874 23.8171 29.2097 23.6953C29.332 23.5735 29.4022 23.4089 29.4053 23.2363V20.7198C29.4053 19.9411 29.1875 19.1781 28.7771 18.5157ZM16.2698 24.0369C16.2701 24.2369 16.23 24.435 16.152 24.6191C16.074 24.8033 15.9596 24.9698 15.8157 25.1088C15.5246 25.3854 15.1384 25.5396 14.7368 25.5396C14.3353 25.5396 13.9491 25.3854 13.658 25.1088C13.5161 24.9672 13.4037 24.7989 13.3274 24.6135C13.2511 24.4282 13.2124 24.2295 13.2135 24.0291C13.2094 23.8221 13.2512 23.6168 13.336 23.4279C13.4515 23.1541 13.6501 22.9231 13.903 22.7656C14.1616 22.5946 14.4663 22.5067 14.7762 22.5136C15.072 22.5136 15.3607 22.6011 15.6057 22.7656C15.8568 22.9257 16.0546 23.1558 16.1745 23.4279C16.2602 23.6161 16.3057 23.8217 16.3048 24.0291L16.2698 24.0369ZM19.1083 19.6829H14.7421C14.5109 19.6827 14.2893 19.591 14.1255 19.4279C13.9617 19.2648 13.8691 19.0435 13.868 18.8123C13.8677 18.6976 13.8902 18.5841 13.934 18.4781C13.9778 18.3722 14.0422 18.2759 14.1233 18.1949C14.2045 18.1139 14.3009 18.0498 14.4069 18.0062C14.5129 17.9626 14.6266 17.9403 14.7412 17.9408H19.1083C19.3395 17.9413 19.5611 18.0332 19.7247 18.1965C19.8883 18.3597 19.9807 18.5811 19.9816 18.8123C19.9817 18.9269 19.9592 19.0404 19.9153 19.1462C19.8714 19.2521 19.8071 19.3482 19.7259 19.4291C19.6448 19.51 19.5484 19.5741 19.4425 19.6176C19.3365 19.6612 19.2229 19.6834 19.1083 19.6829ZM19.1083 16.6869H14.7421C14.5109 16.6867 14.2893 16.595 14.1255 16.4319C13.9617 16.2688 13.8691 16.0475 13.868 15.8163C13.8678 15.7017 13.8904 15.5882 13.9343 15.4824C13.9781 15.3765 14.0425 15.2804 14.1236 15.1995C14.2048 15.1186 14.3011 15.0545 14.4071 15.011C14.5131 14.9674 14.6266 14.9452 14.7412 14.9457H19.1083C19.3393 14.9461 19.5608 15.0379 19.7244 15.201C19.888 15.3641 19.9804 15.5853 19.9816 15.8163C19.9817 15.9309 19.9592 16.0444 19.9153 16.1502C19.8714 16.2561 19.8071 16.3522 19.7259 16.4331C19.6448 16.514 19.5484 16.5781 19.4425 16.6216C19.3365 16.6652 19.2229 16.6874 19.1083 16.6869ZM26.7506 24.0369C26.7507 24.237 26.7105 24.4351 26.6323 24.6192C26.5542 24.8034 26.4396 24.9699 26.2956 25.1088C26.0045 25.3851 25.6185 25.5392 25.2172 25.5392C24.8158 25.5392 24.4298 25.3851 24.1387 25.1088C23.9967 24.9673 23.8841 24.799 23.8077 24.6136C23.7312 24.4283 23.6924 24.2296 23.6933 24.0291C23.6896 23.7118 23.7912 23.4022 23.9821 23.1488C24.1973 22.8627 24.5062 22.6588 24.8553 22.5739H25.0741C25.1141 22.5644 25.1557 22.5644 25.1957 22.5739H25.3707C25.6358 22.6046 25.8887 22.7034 26.104 22.8618C26.3201 23.0202 26.489 23.2337 26.5931 23.4804C26.6797 23.6686 26.7243 23.8742 26.7243 24.0807L26.7506 24.0369Z" fill="black"/>
<path d="M25.215 22.5048C25.1748 22.4951 25.1328 22.4951 25.0925 22.5048H25.215Z" fill="black"/>
</svg>
